<?xml version="1.0" encoding="UTF-8" standalone="no"?>
<!-- Generator: Adobe Illustrator 19.2.1, SVG Export Plug-In . SVG Version: 6.00 Build 0)  -->

<svg
   version="1.1"
   id="Layer_1"
   inkscape:version="1.4 (1:1.4+202410161351+e7c3feb100)"
   sodipodi:docname="basicauth-orange.svg"
   x="0px"
   y="0px"
   width="128px"
   height="128px"
   viewBox="0 0 128 128"
   enable-background="new 0 0 128 128"
   xml:space="preserve"
   xmlns:inkscape="http://www.inkscape.org/namespaces/inkscape"
   xmlns:sodipodi="http://sodipodi.sourceforge.net/DTD/sodipodi-0.dtd"
   xmlns:xlink="http://www.w3.org/1999/xlink"
   xmlns="http://www.w3.org/2000/svg"
   xmlns:svg="http://www.w3.org/2000/svg"
   xmlns:rdf="http://www.w3.org/1999/02/22-rdf-syntax-ns#"
   xmlns:cc="http://creativecommons.org/ns#"
   xmlns:dc="http://purl.org/dc/elements/1.1/"><metadata
     id="metadata408"><rdf:RDF><cc:Work
         rdf:about=""><dc:format>image/svg+xml</dc:format><dc:type
           rdf:resource="http://purl.org/dc/dcmitype/StillImage" /></cc:Work></rdf:RDF></metadata><defs
     id="defs406" /><sodipodi:namedview
     pagecolor="#ffffff"
     bordercolor="#666666"
     borderopacity="1"
     objecttolerance="10"
     gridtolerance="10"
     guidetolerance="10"
     inkscape:pageopacity="0"
     inkscape:pageshadow="2"
     inkscape:window-width="1920"
     inkscape:window-height="1034"
     id="namedview404"
     showgrid="false"
     inkscape:zoom="1.84375"
     inkscape:cx="-86.508475"
     inkscape:cy="64.271186"
     inkscape:window-x="0"
     inkscape:window-y="27"
     inkscape:window-maximized="0"
     inkscape:current-layer="Layer_1"
     inkscape:showpageshadow="2"
     inkscape:pagecheckerboard="0"
     inkscape:deskcolor="#d1d1d1" /><g
     id="g2990"
     transform="matrix(2.9266757,0,0,2.9266757,-6640.1412,-477.24768)"
     display="none"><path
       id="path3"
       inkscape:connector-curvature="0"
       display="inline"
       d="M2301,195.6l-5.7-4.1h7l2.1-6.6l2.2,6.6h3.9   c0.5-1,0.7-2.1,0.7-3.2c0.1-4.1-3.3-7.4-7.4-7.4c0-0.1,0-0.2,0-0.3c0-5.9-4.7-10.6-10.6-10.6c-4.2,0-7.9,2.5-9.6,6   c-0.8-0.3-1.6-0.6-2.5-0.6c-2.7,0-4.9,2-5.4,4.6c-3.2,1.1-5.5,4.2-5.5,7.7c0,4.5,3.7,8.2,8.2,8.2h22.5L2301,195.6L2301,195.6z" /><g
       id="g5"
       transform="translate(0.09999974,-0.1)"
       display="inline"><polygon
         id="polygon7"
         points="2304.5,188.2 2305.9,192.7 2310.6,192.7 2306.8,195.4 2308.3,199.9 2304.5,197.1 2300.7,199.9     2302.2,195.4 2298.3,192.7 2303.1,192.7   " /></g></g><path
     display="none"
     d="M101.9,56.7c0-0.4,0-0.6,0-1c0-17-13.7-30.7-30.7-30.7C59,25,48.5,32.1,43.5,42.4c-2.2-1-4.6-1.8-7.1-1.8  c-7.9,0-14.3,5.7-15.6,13.3c-9.3,3.2-16,12.1-16,22.4c0,13.1,10.7,23.8,23.8,23.8h73.4l0,0c11.9,0,21.6-9.7,21.6-21.8  C123.7,66.4,114,56.7,101.9,56.7z M64.3,86.4c-9.9,0-17.8-7.9-17.8-17.8s7.9-17.8,17.8-17.8v-5.9l14.8,8.5l-14.8,8.5v-7.3  c-7.7,0-13.9,6.1-13.9,13.9s6.1,13.9,13.9,13.9s13.9-6.1,13.9-13.9h4C82.1,78.2,74,86.4,64.3,86.4z"
     id="path7" /><path
     display="none"
     d="M102.3,56.7c0-0.4,0-0.6,0-1c0-17.1-13.7-30.7-30.7-30.7c-12.3,0-22.8,7.1-27.8,17.4c-2.2-1-4.6-1.8-7.1-1.8  c-7.9,0-14.3,5.7-15.7,13.3C11.6,57.1,4.9,66,4.9,76.4c0,13.1,10.7,23.8,23.8,23.8h16.1h7.7h11.9V65.8L50.1,80.1l-2.8-2.8l19-19  l19,19l-2.8,2.8L68.4,65.8v34.5h11.9h5.2h16.7l0,0c11.9,0,21.6-9.7,21.6-21.8C124.1,66.4,114.4,56.7,102.3,56.7z"
     id="path9" /><path
     display="none"
     fill="#050505"
     d="M71.7,29C86.4,29,98.5,41,98.5,55.7v0.2c0,0.2,0,0.4,0,0.6l-0.2,4h4  c9.7,0,17.8,8.1,17.8,17.8s-7.9,17.8-17.8,17.8h-0.8H28.9C18,96.1,9.1,87.2,9.1,76.3c0-8.5,5.3-16,13.5-18.8l2.2-0.8l0.4-2.4  c1-5.7,5.9-9.9,11.7-9.9c1.8,0,3.6,0.4,5.3,1.2l3.6,1.8l1.8-3.6C51.9,34.9,61.4,29,71.7,29 M71.7,25C59.4,25,48.9,32.1,44,42.4  c-2.2-1-4.6-1.8-7.1-1.8c-7.9,0-14.3,5.7-15.7,13.3c-9.3,3.2-16,12.1-16,22.4c0,13.1,10.7,23.8,23.8,23.8h73.5l0,0  c11.9,0,21.6-9.7,21.6-21.8s-9.7-21.8-21.8-21.8c0-0.4,0-0.6,0-1C102.4,38.7,88.6,25,71.7,25L71.7,25z"
     id="path11" /><path
     display="none"
     d="M101.9,58.5c0-0.4,0-0.6,0-1c0-17.1-13.7-30.7-30.7-30.7c-12.3,0-22.8,7.1-27.8,17.5c-2.2-1-4.6-1.8-7.1-1.8  c-7.9,0-14.3,5.8-15.7,13.3C11.2,58.9,4.5,67.8,4.5,78.1c0,13.1,10.7,23.8,23.8,23.8h73.6c11.9,0,21.6-9.7,21.6-21.8  C123.7,68.2,114,58.5,101.9,58.5z M82.9,72.6H68.2v14.8h-4.1V72.6H49.4v-4.1h14.7V53.7h4.1v14.8h14.8V72.6z"
     id="path13" /><g
     display="none"
     id="g15"><path
       display="inline"
       d="M64,54.3c20.1,0,33.9-7.7,33.9-14.6S84.1,25.1,64,25.1s-33.9,7.7-33.9,14.6S43.9,54.3,64,54.3z"
       id="path17" /><path
       display="inline"
       d="M30.1,79.4v5.7v3.2c0,6.9,13.9,14.6,33.9,14.6s33.9-7.7,33.9-14.6v-3.4v-5.8C92.1,85.3,79.2,89.6,64,89.6   S35.8,85.6,30.1,79.4z"
       id="path19" /><path
       display="inline"
       d="M30.1,63.2v3.5v5.5c0,6.9,13.9,14.6,33.9,14.6s33.9-7.7,33.9-14.6v-8.9C92.1,69.5,79.2,73.8,64,73.8   S35.8,69.4,30.1,63.2z"
       id="path21" /><path
       display="inline"
       d="M30.1,47.1V56c0,6.9,13.9,14.6,33.9,14.6S97.9,62.9,97.9,56v-8.9C92.1,53.3,79.2,57.6,64,57.6   S35.8,53.3,30.1,47.1z"
       id="path23" /></g><g
     id="g3"
     transform="matrix(1.0191083,0,0,1.0191083,-0.6114656,0.50955353)"
     display="none"><g
       id="g5_1_"
       display="inline"><polygon
         id="polygon7_1_"
         points="100.2,105 87.4,114.3 92.3,99.4 79.6,90.1 95.4,90.1 100.2,75.1 105.1,90.1 120.9,90.1     108.2,99.4 113.1,114.3   " /></g><g
       id="g9"
       transform="translate(6.0837499e-7,-0.49999939)"
       display="inline"><path
         id="path29"
         inkscape:connector-curvature="0"
         d="M63.2,53.1c19.7,0,33.4-7.6,33.4-14.4S82.9,24.4,63.2,24.4    S29.8,32,29.8,38.8S43.4,53.1,63.2,53.1z" /><path
         id="path31"
         inkscape:connector-curvature="0"
         d="M90.6,86.7l1.9-5.7c-3.9,2.5-9.1,4.5-15.4,5.7H90.6z" /><path
         id="path15"
         inkscape:connector-curvature="0"
         d="M63.2,85.1c14.7,0,26-4.2,30.9-9.1l2.5-7.8v-6.1    c-5.7,6.1-18.4,10.3-33.4,10.3s-27.8-4.5-33.4-10.6v3.5v5.4C29.8,77.5,43.4,85.1,63.2,85.1z" /><path
         id="path34"
         inkscape:connector-curvature="0"
         d="M63.2,69.1c19.7,0,33.4-7.6,33.4-14.4V46c-5.7,6.1-18.4,10.3-33.4,10.3    S35.5,52.1,29.8,46v8.7C29.8,61.5,43.4,69.1,63.2,69.1z" /><path
         id="path36"
         inkscape:connector-curvature="0"
         d="M71.9,87.5c-2.8,0.3-5.7,0.4-8.7,0.4c-15,0-27.7-4.1-33.4-10.2v5.7v3.2    c0,6.8,13.6,14.4,33.4,14.4c8.9,0,16.6-1.6,22.4-3.9C85.5,97.1,71.9,87.5,71.9,87.5z" /></g></g><g
     display="none"
     id="g38"><g
       display="inline"
       id="g40"><path
         d="M97,38.1l-4.4-4.4c-2.7-2.7-6.9-2.7-9.6,0l-1.7,1.7l13.9,13.9l1.7-1.7C99.7,45,99.7,40.7,97,38.1L97,38.1z M97,38.1"
         id="path42" /></g><path
       display="inline"
       d="M78,38.8L39.3,77.5l13.9,13.9L92,52.7l0.2-0.2L78.3,38.5L78,38.8z M78,38.8"
       id="path44" /><path
       display="inline"
       d="M29,101.7l21.2-6.9L35.9,80.5L29,101.7z M45.2,93.6l-6.9,2.3l-3.4-3.4l2.2-6.9L45.2,93.6z M45.2,93.6"
       id="path46" /></g><path
     display="none"
     fill="#050505"
     d="M101.5,98.9L79.1,76.4c4.5-5.5,7.3-12.4,7.3-20C86.3,39,72.3,25,54.9,25S23.5,39,23.5,56.4  s14,31.4,31.4,31.4c7.6,0,14.5-2.6,20-7.3L97.4,103L101.5,98.9z M26.9,56.2c0-15.5,12.6-28.1,28.1-28.1S83,40.7,83,56.2  S70.5,84.3,54.9,84.3S26.9,71.8,26.9,56.2z"
     id="path48" /><g
     display="none"
     id="g50"><polygon
       display="inline"
       fill="#050505"
       points="34.6,62.9 30.7,58.7 64.4,25 98.3,58.7 94.4,62.9 67.1,35.6 67.1,103.2    61.6,103.2 61.6,35.6  "
       id="polygon52" /></g><g
     display="none"
     id="g54"><polygon
       display="inline"
       fill="#050505"
       points="33.5,29.1 29.1,33.5 59.6,64 29.4,94.3 33.7,98.6 64,68.4 94.5,98.9 98.9,94.5    68.4,64 98.9,33.5 94.5,29.1 64,59.6  "
       id="polygon56" /></g><g
     display="none"
     id="g58"><path
       display="inline"
       fill="#050505"
       d="M64,27.9c-20.2,0-36.6,16.4-36.6,36.6s16.4,36.6,36.6,36.6s36.6-16.4,36.6-36.6   S84.2,27.9,64,27.9z M64,98.2c-18.6,0-33.7-15.1-33.7-33.7S45.4,30.8,64,30.8s33.7,15.1,33.7,33.7S82.6,98.2,64,98.2z"
       id="path60" /><polygon
       display="inline"
       fill="#050505"
       points="65.5,42.5 62.5,42.5 62.5,63 42.2,63 42.2,66 62.5,66 62.5,86.5 65.5,86.5    65.5,66 86,66 86,63 65.5,63  "
       id="polygon62" /></g><g
     display="none"
     id="g64"><polygon
       display="inline"
       points="82,56.4 87,61.4 82,67.1 73.4,75.7 47,102.8 42,97.8 77,61.4 42.7,25.6 47.7,20.6 67,41.4  "
       id="polygon66" /></g><g
     display="none"
     id="g68"><path
       display="inline"
       fill="#050505"
       d="M64.1,28.1c-19.7,0-36.4,16.7-36.4,36.4s16.7,36.4,36.4,36.4s36.4-16.7,36.4-36.4   S83.7,28.1,64.1,28.1z M64.1,97.9c-18.7,0-33.4-14.7-33.4-33.4s14.7-33.4,33.4-33.4s33.4,14.7,33.4,33.4S82.8,97.9,64.1,97.9z"
       id="path70" /><path
       display="inline"
       fill="#050505"
       d="M81.8,51.7L59.2,74.3l-8.8-7.9c-1-1-2-1-2.9,0s-1,2,0,2.9l9.8,9.8c0,0,1,1,2,1s1,0,1-1   l24.6-24.6c1-1,1-2,0-2.9C84.7,50.7,82.8,50.7,81.8,51.7z"
       id="path72" /></g><g
     display="none"
     id="g74"><path
       display="inline"
       d="M32.6,39.2h-7.1v56.7c0,4,3.2,7.1,7.1,7.1H89v-7.1H32.6V39.2z M96.1,25H46.6c-3.7,0-6.9,3.2-6.9,7.1v49.5   c0,4,3.2,7.1,7.1,7.1h49.5c4,0,7.1-3.2,7.1-7.1V32.1C103.2,28.2,100.1,25,96.1,25L96.1,25z M89,60.3H74.8v14.2h-7.1V60.3H53.4v-7.1   h14.2v-14h7.1v14.2H89V60.3z"
       id="path76" /></g><g
     display="none"
     id="g78"><polygon
       display="inline"
       points="64.1,52.2 79.1,52.2 64.1,36.8  "
       id="polygon80" /><polygon
       display="inline"
       points="61.1,52.2 61.1,36.8 52.3,36.8 49.2,36.8 44.6,36.8 31.2,36.8 31.2,103.1 79.1,103.1 79.1,99    79.1,90.8 79.1,88.2 79.1,54.8 61.1,54.8  "
       id="polygon82" /><polygon
       display="inline"
       points="82.1,25 82.1,39.9 97,39.9  "
       id="polygon84" /><polygon
       display="inline"
       points="79.1,39.9 79.1,25 70.3,25 67.2,25 62.6,25 49.2,25 49.2,34.3 52.3,34.3 64.1,34.3 65.7,34.3    66.2,34.8 81.1,49.7 82.1,50.7 82.1,52.2 82.1,88.2 82.1,90.8 97,90.8 97,87.2 97,79 97,75.9 97,43 79.1,43  "
       id="polygon86" /></g><g
     display="none"
     id="g88"><path
       display="inline"
       d="M61.5,70.1l43.6,0.5l-2.3-2.3c0,0-18.4-18.4-43.1-0.9l-7.8-11.9c0.9-0.9,1.8-1.8,2.3-3.2   c2.8-5,0.9-11-4.1-13.8s-11-0.9-13.8,4.1s-0.9,11,4.1,13.8c2.8,1.4,6,1.4,8.7,0.5L56,67.4H44c0-3.2-2.3-6.4-5-7.8   c-5-2.8-11-0.9-13.8,4.1s-0.9,11,4.1,13.8s11,0.9,13.8-4.1c0.5-0.9,0.9-1.8,0.9-3.2h13.8C57.3,77.9,58.7,83.5,61,88h-5v2.8h6.9h1.8   h2.8h2.8h6V88h-2.8L61.5,70.1z M41.7,54.5c-3.2-2.3-5-6.4-3.2-10.1c1.8-3.7,6.4-5,10.1-3.2c3.7,1.8,5,6.4,3.2,10.1   S45.4,55.9,41.7,54.5z M40.8,72c-2.3,3.2-6.4,5-10.1,2.8c-3.7-1.8-5-6-3.2-9.6c1.8-3.7,6.4-5,10.1-3.2S42.7,68.3,40.8,72z"
       id="path90" /><rect
       x="44.5"
       y="88"
       display="inline"
       width="8.7"
       height="2.8"
       id="rect92" /><rect
       x="79.4"
       y="88"
       display="inline"
       width="8.7"
       height="2.8"
       id="rect94" /><rect
       x="32.6"
       y="88"
       display="inline"
       width="8.7"
       height="2.8"
       id="rect96" /><rect
       x="91.3"
       y="88"
       display="inline"
       width="8.7"
       height="2.8"
       id="rect98" /></g><g
     display="none"
     id="g100"><path
       display="inline"
       d="M78.4,85.2h9.5L77.2,96.5V86.4C77.2,85.8,77.8,85.2,78.4,85.2L78.4,85.2z M73.7,103H36.2   c-1.2,0-1.8-0.6-1.8-1.8V27c0-1.2,0.6-1.8,1.8-1.8h55.2c1.2,0,2.4,0.6,2.4,1.8v54.7H78.4c-2.4,0-4.8,1.8-4.8,4.8V103z M43.4,36.5   c0,1.2,0.6,1.8,1.8,1.8h33.3c1.2,0,1.8-0.6,1.8-1.8s-0.6-1.8-1.8-1.8H45.1C44.5,34.1,43.4,35.3,43.4,36.5L43.4,36.5z M43.4,47.8   c0,1.2,0.6,1.8,1.8,1.8h33.3c1.2,0,1.8-0.6,1.8-1.8c0-1.2-0.6-1.8-1.8-1.8H45.1C44.5,46,43.4,46.6,43.4,47.8L43.4,47.8z M43.4,59.6   c0,1.2,0.6,1.8,1.8,1.8h27.3c1.2,0,1.8-0.6,1.8-1.8c0-1.2,0-1.8-1.2-1.8H45.1C44.5,57.9,43.4,58.4,43.4,59.6L43.4,59.6z M45.1,73.3   h38c1.2,0,1.8-0.6,1.8-1.8c0-1.2-0.6-1.8-1.8-1.8h-38c-1.2,0-1.8,0.6-1.8,1.8C43.4,72.1,44.5,73.3,45.1,73.3L45.1,73.3z"
       id="path102" /></g><g
     display="none"
     id="g104"><path
       display="inline"
       d="M25.5,57.2v4.9v34.2c0,3.6,2.9,6.5,6.5,6.5H97c3.6,0,6.5-2.9,6.5-6.5v-39H25.5z"
       id="path106" /><path
       display="inline"
       d="M103.5,54v-3.3c0-3.6-2.9-6.5-6.5-6.5H54.7v-1.6c0-3.6-2.9-6.5-6.5-6.5H32c-3.6,0-6.5,2.9-6.5,6.5v8.1V54   H103.5z"
       id="path108" /></g><path
     display="none"
     d="M97.3,53.9H25.5v-3.3v-8.1c0-3.6,2.9-6.5,6.5-6.5h16.3c3.6,0,6.5,2.9,6.5,6.5v1.6h30v3.3  c0,1.4,1.1,2.5,2.5,2.5h10.1V53.9z M99.8,62.5c-1.4,0-2.5-1.1-2.5-2.5v-2.9H25.5V62v34.2c0,3.6,2.9,6.5,6.5,6.5H97  c3.6,0,6.5-2.9,6.5-6.5V62.5H99.8z M119.5,37.6c1.4,0,2.5,1.1,2.5,2.5v5c0,1.4-1.1,2.5-2.5,2.5h-10v10c0,1.4-1.1,2.5-2.5,2.5h-5  c-1.4,0-2.5-1.1-2.5-2.5v-10H89.4c-1.4,0-2.5-1.1-2.5-2.5v-5c0-1.4,1.1-2.5,2.5-2.5h10.1V27.5c0-1.4,1.1-2.5,2.5-2.5h5  c1.4,0,2.5,1.1,2.5,2.5v10.1H119.5L119.5,37.6z M119.5,37.6"
     id="path110" /><path
     display="none"
     d="M48.7,79.6c2.8-1.1,8.4-3.2,13.4-4.7c0.6-0.2,1.3-0.2,1.7-0.6H64c0.4-0.2,1.1-0.2,1.5-0.4s0.4-0.2,0.4-1.9  c0-0.2,0-0.9-0.2-1.1c0-0.2-0.2-0.4-0.2-0.6c0-0.2,0-0.2-0.2-0.2c0-0.2-0.2-0.2-0.2-0.6c-0.2-0.4-0.4-0.9-0.6-1.5  c-0.2-0.2-0.2-0.9-0.4-1.3c0-0.2-0.2-0.2-0.2-0.4c-0.2-0.2-0.2-0.6-0.2-0.9s-0.2-0.2-0.2-0.4c-0.2-0.2-0.2-0.6-0.2-0.9  c-0.2-0.2-0.2-0.6-0.2-1.1c0-0.2,0-0.2-0.2-0.4l0,0l0,0c-0.2-0.2-0.6-0.9-0.9-1.5l-0.2-0.2c0-0.2-0.2-0.2-0.2-0.4  c-0.2-0.2-0.2-0.4-0.2-0.9l0,0C61,59.1,61,58.9,61,58.4l0,0c-0.2-0.2-0.2-0.6-0.2-0.9l0,0c-0.2-0.2-0.2-0.9-0.2-1.3  c0-0.2-0.2-0.6-0.2-0.9v-0.2c0-0.2,0-0.4-0.2-0.6v-0.2c0-0.2,0-0.2,0-0.4c0-0.2,0-0.2,0-0.2c0-0.2,0-0.2,0-0.2c0-0.2,0-0.2,0-0.2V53  c0-0.2,0-0.2,0-0.4l0,0c0-0.2,0-0.2,0.2-0.4l0,0c0-0.2,0-0.2,0.2-0.2v-0.2l0,0l0,0c0,0,0-0.2,0.2-0.2l0,0v-0.2v-0.2  c0-0.9,0-2.8-0.2-4.5l0,0c0-0.2,0-0.6-0.2-0.9c0-0.2,0-0.2,0-0.2c0-0.2-0.2-0.6-0.2-0.9v-0.2c0-0.2,0-0.4-0.2-0.9  c0-1.3,0.2-3.2,0.9-5c0.4-1.3,1.1-2.4,1.9-3.7l0,0c0.2-0.2,0.4-0.6,0.9-0.9c0.2-0.2,0.2-0.2,0.4-0.4s0.2-0.2,0.2-0.2  c0.2-0.2,0.4-0.4,0.9-0.6l0.2-0.2c0.2-0.2,0.6-0.4,1.1-0.6h0.2c0.2-0.2,0.9-0.4,1.3-0.6h0.2c0.4-0.2,0.9-0.2,1.3-0.4  c0.2,0,0.2,0,0.2-0.2c0.4-0.2,0.9-0.2,1.5-0.2c0.2,0,0.2,0,0.2,0c0.6-0.2,1.3-0.2,1.9-0.2h1.5h1.5h0.2c0.2,0,0.9,0.2,1.1,0.2  s0.6,0,0.9,0.2c0.2,0,0.6,0.2,0.9,0.2S80,31,80.2,31c0.2,0.2,0.6,0.2,0.9,0.2c0.2,0.2,0.4,0.2,0.9,0.2c0.2,0.2,0.4,0.2,0.9,0.2  c0.2,0.2,0.4,0.2,0.6,0.2c0.2,0.2,0.4,0.2,0.6,0.4c0.2,0.2,0.2,0.2,0.4,0.2c0.2,0.2,0.4,0.2,0.6,0.4c0.2,0.2,0.2,0.2,0.2,0.2  c0.2,0.2,0.4,0.4,0.6,0.6l0.2,0.2c0.2,0.2,0.4,0.4,0.6,0.9c2.8,3.5,3,7.6,2.8,9.5v0.2c0,0.2-0.2,0.4-0.2,0.9c-0.2,0.9-0.2,2.2-0.2,3  v0.2c0,0.2,0,0.4,0,0.6c0,0.2,0,0.2,0,0.2s0,0.2,0,0.4c0,0.2,0,0.2,0,0.2c0,0.2,0,0.4,0,0.6l0,0c0,0.2,0,0.2,0,0.4l0,0l0,0  c0,0.2,0,0.2,0.2,0.2c0.2,0.6,0.2,1.3,0.4,1.9l0,0c0,0.2,0,0.2,0,0.4c0,0.2,0,0.2,0,0.2c0,0.2,0,0.2,0,0.2c0,0.2,0,0.2,0,0.4  c0,0.2,0,0.2,0,0.2c0,0.2-0.2,0.6-0.2,0.9c-0.6,3-1.5,4.7-2.2,5.8c-0.2,0.2-0.2,0.2-0.2,0.2c-0.2,0.9-0.2,1.7-0.6,2.8  c0,0.2,0,0.2-0.2,0.4s-0.2,0.4-0.2,0.9c0,0.2-0.2,0.4-0.2,0.6c-0.2,0.4-0.2,0.9-0.4,1.1c-0.2,0.2-0.2,0.4-0.2,0.9v0.2  c0,0.2-0.2,0.4-0.2,0.9c0,0.2,0,0.2,0,0.4s0,0.4-0.2,0.9c0,0.4,0,0.9,0,1.5c0,1.3,0,1.5,0.2,1.7l0,0c0,0,0,0,0.2,0h0.2  c0.2,0.2,0.6,0.2,0.9,0.2c2.2,0.6,4.5,1.5,6.7,2.2c0,0,0.2,0,0.2,0.2c0.2,0.2,0.4,0.2,0.9,0.2c0.2,0,0.2,0.2,0.4,0.2  s0.2,0.2,0.4,0.2c0.2,0.2,0.4,0.2,0.6,0.2h0.2c0.2,0.2,0.6,0.2,0.9,0.2H97c1.5,0.4,2.8,0.9,3.9,1.5c0.4,0.2,0.9,0.4,1.5,0.6  c0.2,0.2,0.4,0.2,0.9,0.4c0.2,0,0.2,0.2,0.2,0.2c0.2,0.2,0.2,0.2,0.2,0.2c0.2,0.2,0.2,0.2,0.2,0.2c0.2,0.2,0.2,0.2,0.2,0.2  c0.2,0.2,0.2,0.2,0.2,0.2c0,0.2,0.2,0.2,0.2,0.2c0,0.2,0.2,0.2,0.2,0.2s0,0.2,0.2,0.2c0,0.2,0.2,0.2,0.2,0.4v0.2  c0,0.2,0,0.2,0.2,0.4v0.2c0,0.2,0,0.4,0,0.9c0,1.5,0,6.5,0,7.8v0.2c0,1.1-0.6,3-3,3c0,0,0,0-0.2,0c-2.2,0-16.8,0-23.5,0  c-2.2,0-3.5,0-3.5,0h-0.6c0,0-1.3,0-3.5,0c-6.7,0-21.4,0-23.5,0h-0.2c-2.2,0-3-1.5-3-2.8v-0.2v-7.8C45,82.8,46.1,80.4,48.7,79.6z   M22.6,76.1c2.8-1.1,9.7-3.5,13.6-4.7c0.2-0.2,0.4-0.2,0.4-1.5c0-1.3-0.4-2.4-0.9-3.5s-1.1-3-1.5-4.7c-0.6-0.9-1.5-2.2-2.2-5  c-0.4-2.4-0.2-3.5,0-4.1c0-0.2,0-0.2,0.2-0.2c0.2-0.6,0-3.5-0.4-5.8c-0.2-1.5,0-5,2.2-7.8c1.5-1.7,4.1-3.9,8.8-4.1h2.6  c4.7,0.2,7.3,2.4,8.6,4.1c2.2,2.8,2.6,6,2.2,7.8c-0.4,2.2-0.6,5.2-0.4,5.8c0,0.2,0,0.2,0.2,0.2c0.2,0.9,0.4,1.7,0,4.1  c-0.4,2.8-1.5,4.1-2.2,5c-0.2,1.7-0.9,3.5-1.5,4.7c-0.2,0.9-0.6,1.9-0.6,3.5c0,1.5,0,1.5,0.2,1.5c1.5,0.4,3,0.9,4.7,1.5  c-3.9,1.3-7.8,2.8-9.7,3.5c-3.9,1.5-5.6,5.2-5.6,7.8v4.7c-0.2,0-0.4,0-0.9,0c-5.4,0-17.7,0-19,0c-1.9,0-2.6-1.5-2.6-2.6s0-5.2,0-6.5  C19.3,78.7,20.4,77,22.6,76.1z"
     id="path112" /><path
     id="path3_1_"
     display="none"
     d="M86.5,37.2H42.4l-17.3,19v34.6h77.8V56.2L86.5,37.2z M44.1,40.7h41.5l13.8,15.6H75.2  c0,6-5.2,10.4-11.2,10.4s-10.4-4.3-10.4-10.4H29.4L44.1,40.7z" /><path
     display="none"
     d="M48.8,79.4c2.8-1,8.4-3.2,13.4-4.7c0.7-0.2,1.3-0.2,1.7-0.7h0.2c0.5-0.2,1-0.2,1.5-0.5  c0.5-0.2,0.5-0.2,0.5-1.9c0-0.2,0-0.9-0.2-1c0-0.2-0.2-0.5-0.2-0.7c0-0.2,0-0.2-0.2-0.2c0-0.2-0.2-0.2-0.2-0.7  c-0.2-0.5-0.5-0.9-0.7-1.5c-0.2-0.2-0.2-0.9-0.5-1.3c0-0.2-0.2-0.2-0.2-0.5c-0.3-0.1-0.3-0.6-0.3-0.8c0-0.2-0.2-0.2-0.2-0.5  c-0.2-0.2-0.2-0.7-0.2-0.9c-0.2-0.2-0.2-0.7-0.2-1c0-0.2,0-0.2-0.2-0.5l0,0l0,0c-0.2-0.2-0.7-0.9-0.9-1.5l-0.3-0.2  c0-0.2-0.2-0.2-0.2-0.5c-0.2-0.2-0.2-0.5-0.2-0.9l0,0c-0.2-0.2-0.2-0.5-0.2-0.9l0,0C61,58.1,61,57.6,61,57.4l0,0  c-0.2-0.2-0.2-0.9-0.2-1.3c0-0.2-0.2-0.7-0.2-0.9V55c0-0.2,0-0.5-0.2-0.7v-0.2c0-0.2,0-0.2,0-0.5c0-0.2,0-0.2,0-0.2  c0-0.2,0-0.2,0-0.2c0-0.2,0-0.2,0-0.2v-0.2c0-0.2,0-0.2,0-0.5l0,0c0-0.2,0-0.2,0.2-0.5l0,0c0-0.2,0-0.2,0.2-0.2v-0.2l0,0l0,0  c0,0,0-0.2,0.2-0.2l0,0v-0.2V51c0-0.9,0-2.8-0.2-4.6l0,0c0-0.2,0-0.7-0.2-0.9c0-0.2,0-0.2,0-0.2c0-0.2-0.2-0.7-0.2-0.9v-0.2  c0-0.2,0-0.5-0.2-0.9c0-1.3,0.2-3.2,0.9-4.9c0.5-1.3,1-2.4,1.9-3.7l0,0c0.2-0.2,0.5-0.7,0.9-0.9c0.2-0.2,0.2-0.2,0.5-0.5  c0.2-0.2,0.2-0.2,0.2-0.2c0.2-0.2,0.5-0.5,0.9-0.7l0.2-0.2c0.2-0.2,0.7-0.5,1-0.7h0.2c0.2-0.2,0.9-0.5,1.3-0.7h0.2  c0.5-0.2,0.9-0.2,1.3-0.5c0.2,0,0.2,0,0.2-0.2c0.5-0.2,0.9-0.2,1.5-0.2c0.2,0,0.2,0,0.2,0c0.7-0.2,1.3-0.2,1.9-0.2H75h1.5h0.2  c0.2,0,0.9,0.2,1,0.2c0.2,0,0.7,0,0.9,0.2c0.2,0,0.7,0.2,0.9,0.2s0.7,0.2,0.9,0.2c0.2,0.2,0.7,0.2,0.9,0.2c0.2,0.2,0.5,0.2,0.9,0.2  c0.2,0.2,0.5,0.2,0.9,0.2c0.2,0.2,0.5,0.2,0.7,0.2c0.2,0.2,0.5,0.2,0.7,0.5c0.2,0.2,0.2,0.2,0.5,0.2c0.2,0.2,0.5,0.2,0.7,0.5  c0.2,0.2,0.2,0.2,0.2,0.2c0.2,0.2,0.5,0.5,0.7,0.7l0.2,0.2c0.2,0.2,0.5,0.5,0.7,0.9c2.8,3.4,3,7.6,2.8,9.5v0.2  c0,0.2-0.2,0.5-0.2,0.9c-0.2,0.9-0.2,2.2-0.2,3v0.2c0,0.2,0,0.5,0,0.7c0,0.2,0,0.2,0,0.2s0,0.2,0,0.5c0,0.2,0,0.2,0,0.2  c0,0.2,0,0.5,0,0.7l0,0c0,0.2,0,0.2,0,0.5l0,0l0,0c0,0.2,0,0.2,0.2,0.2c0.2,0.7,0.2,1.3,0.5,1.9l0,0c0,0.2,0,0.2,0,0.5  c0,0.2,0,0.2,0,0.2c0,0.2,0,0.2,0,0.2c0,0.2,0,0.2,0,0.5s0,0.2,0,0.2c0,0.2-0.2,0.7-0.2,0.9c-0.7,3-1.5,4.7-2.2,5.8  c-0.4,0.4-0.4,0.4-0.4,0.4c-0.2,0.9-0.2,1.7-0.7,2.8c0,0.2,0,0.2-0.2,0.5c-0.2,0.2-0.2,0.5-0.2,0.9c0,0.2-0.2,0.5-0.2,0.7  c-0.2,0.5-0.2,0.9-0.5,1c-0.2,0.2-0.2,0.4-0.2,0.8v0.2c0,0.2-0.2,0.5-0.2,0.9c0,0.2,0,0.2,0,0.5c0,0.2,0,0.5-0.2,0.9  c0,0.5,0,0.9,0,1.5c0,1.3,0,1.5,0.2,1.7l0,0c0,0,0,0,0.2,0h0.2c0.2,0.2,0.7,0.2,0.9,0.2c2.2,0.7,4.6,1.5,6.6,2.2c0,0,0.2,0,0.2,0.2  c0.2,0.2,0.5,0.2,0.9,0.2c0.2,0,0.2,0.2,0.5,0.2s0.3,0.4,0.5,0.4c0.2,0.2,0.5,0.2,0.7,0.2h0.2c0.2,0.2,0.7,0.2,0.9,0.2h0.2  c1.5,0.5,2.8,0.9,3.9,1.5c0.5,0.2,0.9,0.5,1.5,0.7c0.2,0.2,0.5,0.2,0.9,0.5c0.2,0,0.2,0.2,0.2,0.2c0.2,0.2,0.2,0.2,0.2,0.2  c0.2,0.2,0.2,0.2,0.2,0.2c0.2,0.2,0.2,0.2,0.2,0.2c0.2,0.2,0.2,0.2,0.2,0.2c0,0.2,0.2,0.2,0.2,0.2c0,0.2,0.2,0.2,0.2,0.2  s0,0.2,0.2,0.2c0,0.2,0.2,0.2,0.2,0.5v0.2c0,0.2,0,0.2,0.2,0.5v0.2c0,0.2,0,0.5,0,0.9c0,1.5,0,6.5,0,7.8V92c0,1-0.7,3-3,3  c0,0,0,0-0.2,0c-2.2,0-16.8,0-23.5,0c-2.2,0-3.4,0-3.4,0h-0.7c0,0-1.3,0-3.4,0c-6.6,0-21.3,0-23.5,0h0.1c-2.2,0-3-1.5-3-2.8V92v-7.8  C45.2,82.7,46.2,80.4,48.8,79.4z M22.7,76c2.8-1,9.7-3.4,13.6-4.7c0.2-0.2,0.5-0.2,0.5-1.5s-0.5-2.4-0.9-3.4c-0.4-1-1-3-1.5-4.7  c-0.7-0.9-1.5-2.2-2.2-4.9c-0.5-2.4-0.2-3.4,0-4.1c0-0.2,0-0.2,0.2-0.2c0.2-0.7,0-3.4-0.5-5.8c-0.2-1.5,0-4.9,2.2-7.8  c1.5-1.7,4.1-3.9,8.8-4.1h2.6c4.7,0.2,7.3,2.4,8.6,4.1c2.2,2.8,2.6,6.1,2.2,7.8c-0.5,2.2-0.7,5.2-0.5,5.8c0,0.2,0,0.2,0.2,0.2  c0.2,0.9,0.5,1.7,0,4.1c-0.5,2.8-1.5,4.1-2.2,4.9c-0.2,1.7-0.9,3.4-1.5,4.7c-0.2,0.9-0.7,1.9-0.7,3.4s0,1.5,0.2,1.5  c1.5,0.5,3,0.9,4.7,1.5c-3.9,1.3-7.8,2.8-9.7,3.4c-3.9,1.5-5.6,5.2-5.6,7.8v4.7c-0.2,0-0.5,0-0.9,0c-5.4,0-17.6,0-19,0  c-1.9,0-2.6-1.5-2.6-2.6s0-5.2,0-6.5C19.5,78.6,20.5,76.9,22.7,76z M123.6,53.2c1,0,1.9,0.9,1.9,1.9v3.8c0,1-0.9,1.9-1.9,1.9h-7.5  v7.5c0,1-0.9,1.9-1.9,1.9h-3.8c-1,0-1.9-0.9-1.9-1.9v-7.5H101c-1,0-1.9-0.9-1.9-1.9v-3.8c0-1,0.9-1.9,1.9-1.9h7.5v-7.5  c0-1,0.9-1.9,1.9-1.9h3.8c1,0,1.9,0.9,1.9,1.9v7.5H123.6L123.6,53.2z"
     id="path115" /><g
     id="g5_2_"
     transform="translate(-0.20000019,0)"
     display="none"><path
       id="path118"
       inkscape:connector-curvature="0"
       display="inline"
       d="M58.4,59.1c-2.5,0-3.8,2.5-3.8,5.5c0,3,1.7,5.5,3.8,5.5   c2.5,0,3.8-2.5,3.8-5.5C62.2,61.7,60.9,59.1,58.4,59.1z" /><path
       id="path120"
       inkscape:connector-curvature="0"
       display="inline"
       d="M64.3,28.1c-20,0-36.1,16.1-36.1,36.5s16.1,36.5,36.5,36.5   s36.5-16.1,36.5-36.5C101.3,44.3,84.7,28.1,64.3,28.1z M48.2,66.8c0,4.7-2.1,6.4-5.9,6.4c-0.8,0-2.1,0-2.5-0.4l0.4-3.4   c0.4,0,1.3,0.4,1.7,0.4c1.7,0,2.5-0.8,2.5-3.4V56.2h3.8V66.8z M58.4,72.7c-4.7,0-7.6-3.8-7.6-8.1c0-4.7,3-8.5,8.1-8.5   s7.6,3.8,7.6,8.1C66.4,69.7,63,72.7,58.4,72.7z M72.4,72.7h-3.8V56.2h3.8V72.7z M88.9,72.7h-3.8l-3.4-6.4c-0.8-1.7-2.1-3.8-3-5.9   l0,0c0,2.1,0,4.2,0,7.2v5.1h-3.4V56.2h4.2l3.4,5.9c0.8,1.7,2.1,3.8,2.5,5.5l0,0c-0.4-2.1-0.4-4.2-0.4-6.8v-4.7h3.4v16.6H88.9z" /></g><path
     display="none"
     d="M82.3,63.3V46.4c0-10.1-8.2-18.3-18.3-18.3s-18.3,8.2-18.3,18.3v16.9h-9.8v38h56.2v-38H82.3z M48.5,46.4  c0-8.6,6.9-15.5,15.5-15.5s15.5,6.9,15.5,15.5v16.9H48.5V46.4z"
     id="path122" /><g
     display="none"
     id="g124"><path
       display="inline"
       d="M100.3,49.1V37H29.6v54.2h10.5v12h70.7V49.1H100.3z M32.6,88.2V40h64.7v9H40.1v39.1H32.6z M107.8,100.2   H43.1V52.1h64.7V100.2z"
       id="path126" /><g
       display="inline"
       id="g128"><polygon
         points="29.8,79.2 18.2,79.2 18.2,25 88.9,25 88.9,37 85.9,37 85.9,28 21.2,28 21.2,76.2 29.8,76.2   "
         id="polygon130" /></g></g><g
     display="none"
     id="g132"><g
       display="inline"
       id="g134"><path
         d="M52.9,102.1c-1.4,0-2.5-1.1-2.4-2.5l0.1-29.3c0-2.4-2.3-4.4-4.9-4.4c-2.6,0-4.9,2-4.9,4.4l-0.1,29.3    c0,1.4-1.1,2.5-2.5,2.4c-1.4,0-2.5-1.1-2.4-2.5l0.1-29.3c0-5.1,4.5-9.3,9.9-9.3c5.3,0,9.8,4.3,9.8,9.4l-0.1,29.3    C55.4,101,54.3,102.1,52.9,102.1z"
         id="path136" /></g><g
       display="inline"
       id="g138"><path
         d="M75.1,102.2c-1.4,0-2.5-1.1-2.4-2.5l0.2-42.8c0-2.4-2.3-4.4-4.9-4.4c-2.6,0-4.9,2-4.9,4.4l-0.2,42.8    c0,1.4-1.1,2.5-2.5,2.4c-1.4,0-2.5-1.1-2.4-2.5L58,56.9c0-5.1,4.5-9.3,9.9-9.3c5.3,0,9.8,4.3,9.8,9.4l-0.2,42.8    C77.5,101.1,76.4,102.2,75.1,102.2z"
         id="path140" /></g><g
       display="inline"
       id="g142"><path
         d="M97.2,102.3c-1.4,0-2.5-1.1-2.4-2.5L95,43.5c0-2.4-2.3-4.4-4.9-4.4c-2.6,0-4.9,2-4.9,4.4l-0.2,56.3c0,1.4-1.1,2.5-2.5,2.4    c-1.4,0-2.5-1.1-2.4-2.5l0.2-56.3c0-5.1,4.5-9.3,9.9-9.3c5.3,0,9.8,4.3,9.8,9.4l-0.2,56.3C99.6,101.2,98.5,102.3,97.2,102.3z"
         id="path144" /></g><g
       display="inline"
       id="g146"><path
         d="M100.8,103.6l-73.7-0.3c-1.4,0-2.5-1.1-2.4-2.5L25,27.1c0-1.4,1.1-2.5,2.5-2.4c1.4,0,2.5,1.1,2.4,2.5l-0.3,71.3l71.3,0.3    c1.4,0,2.5,1.1,2.4,2.5C103.3,102.5,102.2,103.6,100.8,103.6z"
         id="path148" /></g><g
       display="inline"
       id="g150"><path
         d="M32.2,61.5l-4.9,0c-0.7,0-1.2-0.6-1.2-1.2s0.6-1.2,1.2-1.2l4.9,0c0.7,0,1.2,0.6,1.2,1.2C33.5,60.9,32.9,61.5,32.2,61.5z"
         id="path152" /></g><g
       display="inline"
       id="g154"><path
         d="M32.3,49.2l-4.9,0c-0.7,0-1.2-0.6-1.2-1.2s0.6-1.2,1.2-1.2l4.9,0c0.7,0,1.2,0.6,1.2,1.2C33.5,48.7,33,49.2,32.3,49.2z"
         id="path156" /></g><g
       display="inline"
       id="g158"><path
         d="M32.3,36.9l-4.9,0c-0.7,0-1.2-0.6-1.2-1.2c0-0.7,0.6-1.2,1.2-1.2l4.9,0c0.7,0,1.2,0.6,1.2,1.2    C33.6,36.4,33,36.9,32.3,36.9z"
         id="path160" /></g><g
       display="inline"
       id="g162"><path
         d="M32.1,93.4l-4.9,0c-0.7,0-1.2-0.6-1.2-1.2c0-0.7,0.6-1.2,1.2-1.2l4.9,0c0.7,0,1.2,0.6,1.2,1.2    C33.3,92.9,32.8,93.4,32.1,93.4z"
         id="path164" /></g><g
       display="inline"
       id="g166"><path
         d="M32.1,81.1l-4.9,0c-0.7,0-1.2-0.6-1.2-1.2c0-0.7,0.6-1.2,1.2-1.2l4.9,0c0.7,0,1.2,0.6,1.2,1.2    C33.4,80.6,32.8,81.2,32.1,81.1z"
         id="path168" /></g><g
       display="inline"
       id="g170"><path
         d="M32.2,71.3l-4.9,0c-0.7,0-1.2-0.6-1.2-1.2c0-0.7,0.6-1.2,1.2-1.2l4.9,0c0.7,0,1.2,0.6,1.2,1.2    C33.4,70.8,32.9,71.3,32.2,71.3z"
         id="path172" /></g><g
       display="inline"
       id="g174"><path
         d="M91.2,66.7c-0.7,0-1.2-0.6-1.2-1.2L90,48.2c0-0.7,0.6-1.2,1.2-1.2c0.7,0,1.2,0.6,1.2,1.2l-0.1,17.2    C92.4,66.1,91.9,66.7,91.2,66.7z"
         id="path176" /></g><g
       display="inline"
       id="g178"><path
         d="M69,76.4c-0.7,0-1.2-0.6-1.2-1.2l0.1-12.3c0-0.7,0.6-1.2,1.2-1.2c0.7,0,1.2,0.6,1.2,1.2l-0.1,12.3    C70.2,75.8,69.7,76.4,69,76.4z"
         id="path180" /></g><g
       display="inline"
       id="g182"><path
         d="M46.9,83.7c-0.7,0-1.2-0.6-1.2-1.2l0-8.6c0-0.7,0.6-1.2,1.2-1.2c0.7,0,1.2,0.6,1.2,1.2l0,8.6    C48.1,83.1,47.6,83.7,46.9,83.7z"
         id="path184" /></g></g><path
     display="none"
     fill="#050505"
     d="M88.4,70.6v-8.1H65.6v-4.9h14.7V25H47.7v32.6h14.7v4.9H39.6v8.1H24.9v32.6h32.6V70.6H42.8  v-4.9h42.4v4.9H70.5v32.6h32.6V70.6H88.4z M51,28.3H77v26.1H51V28.3z M54.2,100H28.2V73.9h26.1V100z M99.8,100H73.8V73.9h26.1V100z"
     id="path186" /><g
     display="none"
     id="g188"><polygon
       display="inline"
       fill="#12100B"
       points="69.7,75.6 69.7,75.6 69.7,75.6  "
       id="polygon190" /><path
       display="inline"
       fill="#12100B"
       d="M98.4,30c-6.6-6.6-17.4-6.6-24,0L60.3,44.1c-0.9,0.9-0.9,2.4,0,3.3s2.4,0.9,3.3,0   l14.1-14.1c4.8-4.8,12.6-4.8,17.5,0c4.8,4.8,4.8,12.6,0,17.5L78.4,67.4c-4.8,4.8-12.6,4.8-17.5,0c-0.9-0.9-2.4-0.9-3.3,0   c-0.9,0.9-0.9,2.4,0,3.3c3.3,3.3,7.6,5,12,5c4.3,0,8.7-1.7,12-5l16.7-16.7C105,47.3,105,36.6,98.4,30z"
       id="path192" /><polygon
       display="inline"
       fill="#12100B"
       points="42.1,103.2 42,103.2 42,103.2  "
       id="polygon194" /><path
       display="inline"
       fill="#12100B"
       d="M64.9,80.9L50.8,95c-4.8,4.8-12.6,4.8-17.5,0c-4.8-4.8-4.8-12.6,0-17.5l16.7-16.7   c4.8-4.8,12.6-4.8,17.5,0c0.9,0.9,2.4,0.9,3.3,0c0.9-0.9,0.9-2.4,0-3.3c-6.6-6.6-17.4-6.6-24,0L30.1,74.3c-6.6,6.6-6.6,17.4,0,24   c3.3,3.3,7.6,5,12,5c4.3,0,8.7-1.7,12-5l14.1-14.1c0.9-0.9,0.9-2.4,0-3.3C67.2,80,65.8,80,64.9,80.9z"
       id="path196" /></g><g
     display="none"
     id="g198"><path
       display="inline"
       fill="#050505"
       d="M64,25c-21.6,0-39,17.4-39,39s17.4,39,39,39s39-17.4,39-39C103,42.4,85.6,25,64,25z    M64,99.8c-19.7,0-35.8-16.1-35.8-35.8S44.3,28.2,64,28.2S99.8,44.3,99.8,64C99.8,83.7,83.7,99.8,64,99.8z"
       id="path200" /><polygon
       display="inline"
       fill="#050505"
       points="64,67.2 44.5,67.2 44.5,70.5 67.2,70.5 67.2,38 64,38  "
       id="polygon202" /></g><g
     display="none"
     id="g204"><g
       display="inline"
       id="g206"><g
         id="g208"><path
           d="M103.5,48.7v33.4h-78V48.7H103.5 M103.5,43.1h-78c-3.1,0-5.5,2.3-5.5,5.3v33.4c0,3.1,2.5,5.8,5.5,5.8h78     c3.1,0,5.6-2.7,5.6-5.8V48.4C109.1,45.4,106.5,43.1,103.5,43.1L103.5,43.1z"
           id="path210" /></g><g
         id="g212"><path
           d="M96.5,38.9c-1.5,0-2.8-1.2-2.8-2.8v-5.6H35.3v5.6c0,1.5-1.2,2.8-2.8,2.8c-1.5,0-2.8-1.2-2.8-2.8v-8.4     c0-1.5,1.2-2.8,2.8-2.8h64c1.5,0,2.8,1.2,2.8,2.8v8.4C99.3,37.7,98.1,38.9,96.5,38.9z"
           id="path214" /></g><g
         id="g216"><path
           d="M96.5,103h-64c-1.5,0-2.8-1.2-2.8-2.8v-8.4c0-1.5,1.2-2.8,2.8-2.8c1.5,0,2.8,1.2,2.8,2.8v5.6h58.5v-5.6     c0-1.5,1.2-2.8,2.8-2.8c1.5,0,2.8,1.2,2.8,2.8v8.4C99.3,101.7,98.1,103,96.5,103z"
           id="path218" /></g></g><g
       display="inline"
       id="g220"><path
         d="M39.5,71.2l-0.2-1.4h-0.1c-0.6,0.8-1.8,1.6-3.3,1.6c-2.2,0-3.3-1.5-3.3-3.1c0-2.6,2.3-4,6.5-4v-0.2c0-0.9-0.2-2.5-2.5-2.5    c-1,0-2.1,0.3-2.8,0.8l-0.4-1.3c0.9-0.6,2.2-1,3.5-1c3.3,0,4.1,2.3,4.1,4.4v4c0,0.9,0,1.8,0.2,2.6H39.5z M39.3,65.7    c-2.1,0-4.6,0.3-4.6,2.4c0,1.3,0.8,1.9,1.8,1.9c1.4,0,2.3-0.9,2.6-1.8c0.1-0.2,0.1-0.4,0.1-0.6V65.7z"
         id="path222" /><path
         d="M43.7,71.2V70l1.5-1.5c3.7-3.5,5.4-5.4,5.4-7.6c0-1.5-0.7-2.8-2.9-2.8c-1.3,0-2.4,0.7-3.1,1.2L44,58    c1-0.8,2.4-1.5,4.1-1.5c3.1,0,4.4,2.1,4.4,4.2c0,2.7-1.9,4.8-5,7.8l-1.2,1.1v0h6.5v1.6H43.7z"
         id="path224" /><path
         d="M55.6,69c0.6,0.4,1.8,0.9,3.2,0.9c2.5,0,3.3-1.6,3.3-2.8c0-2-1.8-2.9-3.7-2.9h-1.1v-1.5h1.1c1.4,0,3.2-0.7,3.2-2.5    c0-1.2-0.7-2.2-2.5-2.2c-1.2,0-2.3,0.5-2.9,1l-0.5-1.4c0.8-0.6,2.2-1.1,3.8-1.1c2.9,0,4.1,1.7,4.1,3.5c0,1.5-0.9,2.8-2.7,3.4v0    c1.8,0.4,3.2,1.7,3.2,3.7c0,2.3-1.8,4.3-5.3,4.3c-1.6,0-3.1-0.5-3.8-1L55.6,69z"
         id="path226" /><path
         d="M68.3,66.2c0,2.7,1.7,3.7,3.7,3.7c1.4,0,2.3-0.2,3-0.6l0.3,1.4c-0.7,0.3-1.9,0.7-3.6,0.7c-3.3,0-5.3-2.2-5.3-5.4    s1.9-5.8,5.1-5.8c3.5,0,4.5,3.1,4.5,5.1c0,0.4,0,0.7-0.1,0.9H68.3z M74,64.8c0-1.2-0.5-3.2-2.7-3.2c-2,0-2.9,1.8-3,3.2H74z"
         id="path228" /></g></g><path
     display="none"
     fill="#050505"
     d="M78,34.1v-3c0-3.3-2.7-6.1-6.1-6.1H56.4c-3.3,0-6.1,2.7-6.1,6.1v3H34.5v3h3.3l3,59.2  c0,3.3,2.7,6.1,6.1,6.1h34.3c3.3,0,6.1-2.7,6.1-6.1l3-59.2h3v-3H78z M53.1,31.1c0-1.8,1.5-3,3-3h15.5c1.8,0,3,1.5,3,3v3H53.1V31.1z   M53.4,93l-3-49.5l3-0.3l3,49.5L53.4,93z M65.5,93h-3V43.2h3V93z M74.9,93l-3-0.3l3-49.8l3,0.3L74.9,93z"
     id="path230" /><path
     display="none"
     d="M92.9,25c-6.6,0-12,5.4-12,12c0,1.2,0.1,2.3,0.5,3.3L46.2,55c-2.1-3.6-6-6-10.4-6c-6.6,0-12,5.4-12,12  s5.4,12,12,12c3.5,0,6.6-1.5,8.9-3.9l22.7,16.2C66.5,87,66,88.9,66,90.9c0,6.6,5.4,12,12,12s12-5.4,12-12s-5.4-12-12-12  c-3.5,0-6.8,1.5-8.9,3.9L46.6,66.6c0.9-1.7,1.5-3.6,1.5-5.7c0-1.1-0.1-2.3-0.5-3.2L82.8,43c2.1,3.6,6,6,10.4,6c6.6,0,12-5.4,12-12  C104.9,30.4,99.5,25,92.9,25z"
     id="path232" /><g
     id="g7"
     transform="matrix(1.9819277,0,0,1.9819277,-16.449999,-16.449999)"
     display="none"><polygon
       id="polygon9"
       display="inline"
       points="28.1,36 19.4,42.9 31.9,51.1 40.6,43.7  " /><polygon
       id="polygon11"
       display="inline"
       points="40.6,28.1 31.9,20.9 19.4,29.1 28.1,36  " /><polygon
       id="polygon13"
       display="inline"
       points="53.4,36 61.8,29.1 49.5,20.9 40.6,28.1  " /><polygon
       id="polygon15"
       display="inline"
       points="53.4,36 40.6,43.7 49.5,51.1 61.8,42.9  " /><polygon
       id="polygon17"
       display="inline"
       points="28.3,52.9 40.8,60.3 53.1,52.9 53.1,50 49.5,52.6 40.8,45.2 31.9,52.6 28.3,50     " /></g><path
     id="path7_1_"
     inkscape:connector-curvature="0"
     display="none"
     d="M46.2,50.8h8v-8c0-3.3,0-8.9,2.3-12.2  c2.8-3.3,6.1-5.6,12.2-5.6c9.9,0,14.6,1.4,14.6,1.4l-1.9,12.2c0,0-3.3-0.9-6.6-0.9s-6.1,0.9-6.1,4.2v8.9h12.7l-0.9,11.7H68.7V103  h-15V62.6h-8V50.8L46.2,50.8z" /><g
     id="g7_1_"
     transform="matrix(1.9113885,0,0,1.9113885,-14.90883,-14.896771)"
     display="none"><path
       id="path9_1_"
       inkscape:connector-curvature="0"
       display="inline"
       d="M49.7,45c-1.9,0-3.3,2.2-3.3,4.7s1.4,4.7,3.3,4.7   c1.9,0,3.3-2.2,3.3-4.7C53.3,47,51.6,45,49.7,45L49.7,45z M61.6,32.8c0.3-0.8,0.3-6.4-1.7-11.7c0,0-4.7,0.6-11.9,5.3   c-1.4-0.3-4.2-0.6-6.7-0.6c-2.5,0-5,0.3-6.7,0.6c-7.2-5-11.9-5.3-11.9-5.3c-1.7,5.3-1.7,10.8-1.4,11.7c-2.5,2.5-3.9,5.8-3.9,10   c0,18.6,15.5,18.9,19.4,18.9c0.8,0,2.8,0,4.4,0c1.9,0,3.6,0,4.4,0c3.9,0,19.4-0.3,19.4-18.9C65.5,38.6,64.1,35.3,61.6,32.8   L61.6,32.8z M41.6,59.5L41.6,59.5c-10,0-17.5-1.1-17.5-10.8c0-2.2,0.8-4.4,2.8-6.1c3.3-3.1,8.6-1.4,14.7-1.4l0,0l0,0   c6.1,0,11.7-1.7,14.7,1.4c1.9,1.7,2.8,3.9,2.8,6.1C59.1,58.4,51.3,59.5,41.6,59.5L41.6,59.5z M33.3,45c-1.9,0-3.3,2.2-3.3,4.7   s1.4,4.7,3.3,4.7s3.3-2.2,3.3-4.7C36.6,47,35.2,45,33.3,45L33.3,45z" /></g><path
     id="path7_2_"
     inkscape:connector-curvature="0"
     display="none"
     d="M52,99.2c-9.3,0-15.7-6-15.7-13s8.3-12.5,17.6-12.5  c2.3,0,4.2,0.5,6,0.9c5.1,3.2,8.3,5.6,9.7,9.3c0,0.9,0.5,1.9,0.5,2.3C69.1,93.6,65,99.2,52,99.2 M54.3,58c-6,0-12-6.9-13-14.8  s3.2-14.4,9.3-13.9c6,0,12,6.5,13,14.8C64.5,52,60.3,58.4,54.3,58 M67.3,70c-2.3-1.4-6.5-5.1-6.5-7.4c0-2.8,0.9-3.7,4.6-6.9  c4.2-3.2,6.9-7.4,6.9-12.5c0-6-2.8-12-7.9-13.9h7.4l5.6-3.7H53.4c-10.7,0-20.8,8.3-20.8,17.6c0,9.7,7.4,17.6,18.1,17.6  c0.9,0,1.4,0,2.3,0c-0.9,1.4-1.4,2.8-1.4,4.6c0,2.8,1.4,4.6,3.2,6.5c-1.4,0-2.8,0-4.2,0C37.2,71.9,27,80.2,27,89  c0,8.8,11.1,13.9,24.5,13.9c15.3,0,23.6-8.8,23.6-17.1C75.6,78.8,73.3,74.7,67.3,70 M102,58.9h-9.3v-9.3h-7.4v9.3h-9.3v7.4h9.3v9.3  h7.4v-9.3h9.3V58.9z" /><g
     id="g4414"
     transform="translate(0.14703467,1.1228823)"
     display="none"><g
       id="g4301"
       transform="matrix(1.4181034,0,0,1.4181034,-7.8047917,-8.8515445)"
       display="inline"><g
         id="g4303"><rect
           id="rect4305"
           x="54.4"
           y="53.2"
           width="1.7"
           height="13.8" /></g><g
         id="g4307"><path
           id="path4309"
           inkscape:connector-curvature="0"
           d="M52.4,43.4h-2.3v-5.1h2.3c1.4,0,2.3,0.6,2.3,2.5     C54.4,42.8,53.9,43.4,52.4,43.4 M52.4,36.9h-3.9v13.8h1.7V45h2.3c2.5,0,3.9-1.1,3.9-3.9S55,36.9,52.4,36.9L52.4,36.9z" /></g><g
         id="g4311"><path
           id="path4313"
           inkscape:connector-curvature="0"
           d="M47.1,60h-2.3v-5.4h2.3c1.4,0,2.3,0.6,2.3,2.5     C49.3,59.1,48.8,60,47.1,60 M49.1,61.1c1.4-0.6,2.3-1.7,2.3-3.9c0-2.8-1.4-3.9-3.9-3.9h-3.9V67h1.7v-5.4h2l3.1,5.4h2L49.1,61.1     L49.1,61.1z" /></g><g
         id="g4315"><path
           id="path4317"
           inkscape:connector-curvature="0"
           d="M40.1,66.7v-8.2h-3.4v1.7h1.7v5.1h-2.5c-1.7,0-2.5-0.8-2.5-2.3v-5.9     c0-1.7,0.8-2.3,2.5-2.3h4.5v-1.7h-4.5c-2.8,0-4.5,1.4-4.5,3.9v5.9c0,2.5,1.4,3.9,4.5,3.9h4.2L40.1,66.7z" /></g><g
         id="g4319"><polygon
           id="polygon4321"
           points="58.9,36.9 58.9,50.4 66.8,50.4 66.8,49 60.6,49 60.6,36.9    " /></g><g
         id="g4323"><path
           id="path4325"
           inkscape:connector-curvature="0"
           d="M66,62.8c0,1.7-0.8,2.3-2.5,2.3h-2.5V54.6h2.5c1.7,0,2.5,0.8,2.5,2.3     V62.8L66,62.8z M63.4,53.2h-4.5V67h4.5c2.8,0,4.5-1.4,4.5-3.9v-5.9C67.7,54.3,66.2,53.2,63.4,53.2L63.4,53.2z" /></g><g
         id="g4327"><polygon
           id="polygon4329"
           points="18.9,50.7 25.7,50.7 28.5,47.9 18.9,46.7    " /></g><g
         id="g4331"><polygon
           id="polygon4333"
           points="63.2,31 48.5,31.2 51,33.8 60.1,33.8    " /></g><g
         id="g4335"><polygon
           id="polygon4337"
           points="45.4,27.9 43.7,23.1 39.5,24.5 42.6,50.1 45.4,47.3    " /></g><g
         id="g4339"><polygon
           id="polygon4341"
           points="63.4,26.7 48.2,28.1 48.2,30.4 63.4,30.1    " /></g><g
         id="g4343"><polygon
           id="polygon4345"
           points="69.1,47 73.9,47 73.3,43.4 66.2,44.2    " /></g><g
         id="g4347"><polygon
           id="polygon4349"
           points="74.4,52.4 73.9,48.4 70.5,51.8    " /></g><g
         id="g4351"><polygon
           id="polygon4353"
           points="66,43.4 73.3,42.5 71.6,25.9 66,26.5    " /></g><g
         id="g4355"><polygon
           id="polygon4357"
           points="70.5,68.4 75.3,60.3 74.4,52.9 70.5,52.4    " /></g><g
         id="g4359"><polygon
           id="polygon4361"
           points="38.6,24.8 31.3,27 31.3,47.3 34.4,50.4 41.7,50.4    " /></g><g
         id="g4363"><polygon
           id="polygon4365"
           points="40.1,73.5 56.7,72.4 54.1,69.6 33.6,69.3    " /></g><g
         id="g4367"><polygon
           id="polygon4369"
           points="57,72.9 41.2,74.3 44.8,76.9 57,78.3    " /></g><g
         id="g4371"><polygon
           id="polygon4373"
           points="19.2,57.4 28.8,56 28.8,56 25.7,53.2 19.2,53.2    " /></g><g
         id="g4375"><polygon
           id="polygon4377"
           points="28.8,56.9 19.2,58 19.5,60.5 28.8,66.5    " /></g><g
         id="g4379"><polygon
           id="polygon4381"
           points="18.9,45.9 28.8,47 28.8,27.9 18.4,31.2    " /></g><g
         id="g4383"><path
           id="path4385"
           inkscape:connector-curvature="0"
           d="M74.7,74.3h-1.1v-3.1h1.1c0.8,0,1.1,0.3,1.1,1.4     C75.8,73.8,75.5,74.3,74.7,74.3 M75.8,74.9c0.8-0.3,1.1-1.1,1.1-2.3c0-1.7-0.8-2.3-2.3-2.3h-2.3V78h1.1v-3.1h1.1l1.7,3.1h1.1     L75.8,74.9L75.8,74.9z" /><path
           id="path4387"
           inkscape:connector-curvature="0"
           d="M78.1,78.6h-1.7l-1.7-3.1h-0.8v3.1h-1.7v-8.2h2.5c1.7,0,2.5,0.8,2.5,2.5     c0,1.1-0.3,2-1.1,2.5L78.1,78.6z M76.7,78h0.6l-1.7-3.1h0.3c0.6-0.3,1.1-0.8,1.1-2c0-1.4-0.6-2-2-2h-2v7h0.3v-3.1H75L76.7,78z      M74.7,74.6h-1.4V71h1.4c1.1,0,1.4,0.6,1.4,1.7C76.1,74.3,75.3,74.6,74.7,74.6z M73.9,74.1h0.8c0.6,0,0.8-0.3,0.8-1.1     c0-0.8-0.3-1.1-0.8-1.1h-0.8V74.1z" /></g><g
         id="g4389"><path
           id="path4391"
           inkscape:connector-curvature="0"
           d="M64.3,78.3c0-0.3,0-0.3,0-0.8c-0.3,0-0.6,0-0.8,0H62     c-0.6,0-0.8,0-1.1-0.3c-0.3-0.3-0.3-0.6-0.3-1.1v-3.4c0-0.8,0.6-1.4,1.4-1.4h2.5v-0.8H62c-1.7,0-2.5,0.8-2.5,2.3c0,0,0,0.8,0,1.7     c0,0.8,0,1.7,0,1.7c0,1.4,0.8,2.3,2.5,2.3H64.3L64.3,78.3z" /><path
           id="path4393"
           inkscape:connector-curvature="0"
           d="M64.6,78.6h-2.8c-2.3,0-2.8-1.4-2.8-2.5v-3.4c0-1.1,0.6-2.5,2.8-2.5h2.8     v1.4h-2.8c-1.1,0-1.1,0.6-1.1,1.1V76c0,0.3,0,0.6,0.3,0.8c0.3,0.3,0.6,0.3,0.8,0.3h1.4c0.6,0,0.8,0,0.8,0h0.3v1.4H64.6z      M61.7,70.7c-1.4,0-2.3,0.6-2.3,2V76c0,1.4,0.6,2,2.3,2H64v-0.3c-0.3,0-0.3,0-0.6,0H62c-0.6,0-1.1,0-1.4-0.3     c-0.3-0.3-0.6-0.6-0.6-1.1v-3.4c0-1.1,0.6-1.7,1.7-1.7H64V71h-2.3L61.7,70.7z" /></g><g
         id="g4395"><path
           id="path4397"
           inkscape:connector-curvature="0"
           d="M69.3,76.9c0.3-0.3,0.3-0.6,0.3-1.1v-3.4c0-0.8-0.6-1.4-1.4-1.4l0,0     c-0.8,0-1.4,0.6-1.4,1.4V76c0,0.6,0,0.8,0.3,1.1c0.3,0.3,0.6,0.3,1.1,0.3l0,0C68.8,77.2,69.1,77.2,69.3,76.9L69.3,76.9z      M68.2,70.7L68.2,70.7c1.7,0,2.5,0.6,2.5,2.3c0,0,0,0.8,0,1.7s0,1.7,0,1.7c0,1.4-0.6,2-2,2.3h-0.3h-0.3l0,0h-0.3h-0.3     c-1.4-0.3-2-0.8-2-2.3c0,0,0-0.8,0-1.7s0-1.7,0-1.7C66,71.2,66.8,70.4,68.2,70.7L68.2,70.7z" /><path
           id="path4399"
           inkscape:connector-curvature="0"
           d="M68.5,78.6h-0.6c-1.4-0.3-2.3-1.1-2.3-2.5v-3.4c0-1.1,0.6-2.3,2.5-2.5     l0,0h0.3h0.3l0,0c2,0,2.5,1.4,2.5,2.5V76C71,77.4,70.2,78.3,68.5,78.6L68.5,78.6z M68.2,70.7c-1.4,0-2.3,0.6-2.3,2V76     c0,1.1,0.6,1.7,1.7,2h1.1c1.1,0,1.7-0.8,1.7-2v-3.4C70.5,71.5,69.9,70.7,68.2,70.7z M68.2,77.4c-0.6,0-1.1,0-1.4-0.3     s-0.6-0.6-0.6-1.1v-3.4c0-1.1,0.6-1.7,1.7-1.7s1.7,0.6,1.7,1.7V76c0,0.6-0.3,0.8-0.6,1.1l0,0C69.3,77.4,68.8,77.4,68.2,77.4z      M68.2,71.5c-1.1,0-1.1,0.6-1.1,1.1V76c0,0.3,0,0.6,0.3,0.8c0.3,0.3,0.6,0.3,0.8,0.3c0.3,0,0.8,0,0.8-0.3     c0.3-0.3,0.3-0.3,0.3-0.8v-3.4C69.6,72.1,69.3,71.8,68.2,71.5z" /></g><g
         id="g4401"><polygon
           id="polygon4403"
           points="83.4,74.6 79.8,74.6 79.8,77.2 83.4,77.2 83.4,78.3 79.8,78.3 79.8,78.3 78.9,78.3 78.9,78.3      78.9,77.2 78.9,74.6 78.9,73.8 78.9,71.2 78.9,70.4 78.9,70.4 79.8,70.4 79.8,70.4 83.4,70.4 83.4,71.2 79.8,71.2 79.8,73.8      83.4,73.8    " /><path
           id="path4405"
           inkscape:connector-curvature="0"
           d="M83.7,78.6h-5.1v-8.2h5.1v1.4h-3.7v1.7h3.7v1.4h-3.7v2.3h3.7V78.6z      M79.2,78h3.9v-0.3h-3.7v-3.4h3.7v-0.3h-3.7v-2.8h3.7V71h-3.9V78z" /></g></g></g><path
     display="none"
     d="M82.1,78.3c-0.6,0-1.2-0.2-1.6-0.7c-0.9-0.9-0.9-2.3,0-3.2l8.1-8.1H56.2c-1.3,0-2.3-1-2.3-2.3  c0-1.3,1-2.3,2.3-2.3h32.3l-8-8.2c-0.9-0.9-0.9-2.3,0-3.2c0.9-0.9,2.3-0.9,3.2,0l12,12c0.4,0.4,0.7,1,0.7,1.6c0,0.6-0.2,1.2-0.7,1.6  l-12,12C83.2,78.1,82.6,78.3,82.1,78.3L82.1,78.3z M82.1,78.3 M78.1,102.7H33.9c-1.3,0-2.3-1-2.3-2.3V27.7c0-1.3,1-2.3,2.3-2.3h44.2  c1.3,0,2.3,1,2.3,2.3V41c0,1.3-1,2.3-2.3,2.3s-2.3-1-2.3-2.3V30H36.2v68.2h39.6v-11c0-1.3,1-2.3,2.3-2.3s2.3,1,2.3,2.3v13.3  C80.3,101.7,79.3,102.7,78.1,102.7L78.1,102.7z M78.1,102.7"
     id="path298" /><g
     id="g5_3_"
     transform="translate(-0.20000019,0)"
     display="none"><path
       id="path7_3_"
       inkscape:connector-curvature="0"
       display="inline"
       d="M57.4,58.1c-2.7,0-4.1,2.7-4.1,5.9   c0,3.2,1.8,5.9,4.1,5.9c2.7,0,4.1-2.7,4.1-5.9C61.5,60.8,60.1,58.1,57.4,58.1z" /><path
       id="path9_2_"
       inkscape:connector-curvature="0"
       display="inline"
       d="M63.7,25c-21.3,0-38.5,17.2-38.5,39s17.2,39,39,39   s39-17.2,39-39C103.2,42.2,85.5,25,63.7,25z M46.5,66.3c0,5-2.3,6.8-6.3,6.8c-0.9,0-2.3,0-2.7-0.5l0.5-3.6c0.5,0,1.4,0.5,1.8,0.5   c1.8,0,2.7-0.9,2.7-3.6V54.9h4.1V66.3z M57.4,72.6c-5,0-8.2-4.1-8.2-8.6c0-5,3.2-9.1,8.6-9.1S66,59,66,63.5   C66,69.4,62.4,72.6,57.4,72.6z M72.4,72.6h-4.1V54.9h4.1V72.6z M90,72.6H86l-3.6-6.8c-0.9-1.8-2.3-4.1-3.2-6.3l0,0   c0,2.3,0,4.5,0,7.7v5.4h-3.6V54.9h4.5l3.6,6.3c0.9,1.8,2.3,4.1,2.7,5.9l0,0C86,64.9,86,62.6,86,59.9v-5h3.6v17.7H90z" /></g><path
     display="none"
     fill="none"
     stroke="#000000"
     stroke-width="2"
     stroke-miterlimit="10"
     d="M61.6,27.1L54,52.3l-26.2-0.5  c-1.3,0-2.5,0.8-2.9,2.1c-0.4,1.3,0.1,2.7,1.2,3.4l21.6,15L38.9,97c-0.4,1.3,0,2.7,1.1,3.4c1.1,0.8,2.5,0.8,3.6,0l20.9-15.9  l20.9,15.9c1,0.8,2.5,0.8,3.6,0c1.1-0.8,1.5-2.2,1.1-3.4l-8.6-24.8l21.6-15c1.1-0.7,1.6-2.1,1.2-3.4c-0.4-1.3-1.6-2.1-2.9-2.1  L75,52.3l-7.6-25.1C67,25.9,65.8,25,64.5,25C63.2,25,62,25.9,61.6,27.1L61.6,27.1z M61.6,27.1"
     id="path303" /><g
     display="none"
     id="g305"><path
       display="inline"
       d="M41,103.1h45.6c2.5,0,4.5-2,4.5-4.5V29.7c0-2.5-2-4.5-4.5-4.5H41c-2.5,0-4.5,2-4.5,4.5v68.8   C36.6,101.1,38.6,103.1,41,103.1L41,103.1z M83.4,97.6c-1.5,0-2.7-1.2-2.7-2.7c0-1.5,1.2-2.7,2.7-2.7c1.5,0,2.7,1.2,2.7,2.7   C86.1,96.4,84.9,97.6,83.4,97.6L83.4,97.6z M83.4,31.4c1.5,0,2.7,1.2,2.7,2.7c0,1.5-1.2,2.7-2.7,2.7c-1.5,0-2.7-1.2-2.7-2.7   C80.7,32.6,81.9,31.4,83.4,31.4L83.4,31.4z M63.8,33.4c11.6,0,21,9.4,21,21c0,11.6-9.4,21-21,21c-1.8,0-3.6-0.2-5.3-0.7l3.9-6.7   c1.2-2-1.1-4.2-3.1-3.1l-9.1,5.4c0,0,0,0,0,0c-4.5-3.8-7.4-9.6-7.4-16C42.8,42.8,52.2,33.4,63.8,33.4L63.8,33.4z M44.8,31.4   c1.5,0,2.7,1.2,2.7,2.7c0,1.5-1.2,2.7-2.7,2.7c-1.5,0-2.7-1.2-2.7-2.7C42.1,32.6,43.3,31.4,44.8,31.4L44.8,31.4z M44.8,92.2   c1.5,0,2.7,1.2,2.7,2.7c0,1.5-1.2,2.7-2.7,2.7c-1.5,0-2.7-1.2-2.7-2.7C42.1,93.4,43.3,92.2,44.8,92.2L44.8,92.2z M44.8,92.2"
       id="path307" /><path
       display="inline"
       d="M69.4,54.3c0,3.1-2.5,5.6-5.6,5.6s-5.6-2.5-5.6-5.6c0-3.1,2.5-5.6,5.6-5.6S69.4,51.2,69.4,54.3L69.4,54.3   z M69.4,54.3"
       id="path309" /></g><path
     display="none"
     d="M38.8,78.5c2.8-1,8.4-3.2,13.4-4.7c0.7-0.2,1.3-0.2,1.7-0.7h0.2c0.5-0.2,1-0.2,1.5-0.5  c0.5-0.2,0.5-0.2,0.5-1.9c0-0.2,0-0.9-0.2-1c0-0.2-0.2-0.5-0.2-0.7s0-0.2-0.2-0.2c0-0.2-0.2-0.2-0.2-0.7c-0.2-0.5-0.5-0.9-0.7-1.5  c-0.2-0.2-0.2-0.9-0.5-1.3c0-0.2-0.2-0.2-0.2-0.5c-0.3-0.1-0.3-0.6-0.3-0.8c0-0.2-0.2-0.2-0.2-0.5c-0.2-0.2-0.2-0.7-0.2-0.9  c-0.2-0.2-0.2-0.7-0.2-1c0-0.2,0-0.2-0.2-0.5l0,0l0,0c-0.2-0.2-0.7-0.9-0.9-1.5l-0.3-0.2c0-0.2-0.2-0.2-0.2-0.5  c-0.2-0.2-0.2-0.5-0.2-0.9l0,0c-0.2-0.2-0.2-0.5-0.2-0.9l0,0C51,57.2,51,56.7,51,56.5l0,0c-0.2-0.2-0.2-0.9-0.2-1.3  c0-0.2-0.2-0.7-0.2-0.9v-0.2c0-0.2,0-0.5-0.2-0.7v-0.2c0-0.2,0-0.2,0-0.5c0-0.2,0-0.2,0-0.2c0-0.2,0-0.2,0-0.2c0-0.2,0-0.2,0-0.2V52  c0-0.2,0-0.2,0-0.5l0,0c0-0.2,0-0.2,0.2-0.5l0,0c0-0.2,0-0.2,0.2-0.2v-0.2l0,0l0,0c0,0,0-0.2,0.2-0.2l0,0v-0.2v-0.2  c0-0.9,0-2.8-0.2-4.6l0,0c0-0.2,0-0.7-0.2-0.9c0-0.2,0-0.2,0-0.2c0-0.2-0.2-0.7-0.2-0.9v-0.2c0-0.2,0-0.5-0.2-0.9  c0-1.3,0.2-3.2,0.9-4.9c0.5-1.3,1-2.4,1.9-3.7l0,0c0.2-0.2,0.5-0.7,0.9-0.9c0.2-0.2,0.2-0.2,0.5-0.5c0.2-0.2,0.2-0.2,0.2-0.2  c0.2-0.2,0.5-0.5,0.9-0.7l0.2-0.2c0.2-0.2,0.7-0.5,1-0.7h0.2c0.2-0.2,0.9-0.5,1.3-0.7h0.2c0.5-0.2,0.9-0.2,1.3-0.5  c0.2,0,0.2,0,0.2-0.2c0.5-0.2,0.9-0.2,1.5-0.2c0.2,0,0.2,0,0.2,0c0.7-0.2,1.3-0.2,1.9-0.2H65h1.5h0.2c0.2,0,0.9,0.2,1,0.2  s0.7,0,0.9,0.2c0.2,0,0.7,0.2,0.9,0.2c0.2,0,0.7,0.2,0.9,0.2c0.2,0.2,0.7,0.2,0.9,0.2c0.2,0.2,0.5,0.2,0.9,0.2  c0.2,0.2,0.5,0.2,0.9,0.2c0.2,0.2,0.5,0.2,0.7,0.2c0.2,0.2,0.5,0.2,0.7,0.5c0.2,0.2,0.2,0.2,0.5,0.2c0.2,0.2,0.5,0.2,0.7,0.5  c0.2,0.2,0.2,0.2,0.2,0.2c0.2,0.2,0.5,0.5,0.7,0.7l0.2,0.2c0.2,0.2,0.5,0.5,0.7,0.9c2.8,3.4,3,7.6,2.8,9.5v0.2  c0,0.2-0.2,0.5-0.2,0.9c-0.2,0.9-0.2,2.2-0.2,3v0.2c0,0.2,0,0.5,0,0.7c0,0.2,0,0.2,0,0.2s0,0.2,0,0.5c0,0.2,0,0.2,0,0.2  c0,0.2,0,0.5,0,0.7l0,0c0,0.2,0,0.2,0,0.5l0,0l0,0c0,0.2,0,0.2,0.2,0.2c0.2,0.7,0.2,1.3,0.5,1.9l0,0c0,0.2,0,0.2,0,0.5  c0,0.2,0,0.2,0,0.2c0,0.2,0,0.2,0,0.2c0,0.2,0,0.2,0,0.5s0,0.2,0,0.2c0,0.2-0.2,0.7-0.2,0.9c-0.7,3-1.5,4.7-2.2,5.8  c-0.4,0.4-0.4,0.4-0.4,0.4c-0.2,0.9-0.2,1.7-0.7,2.8c0,0.2,0,0.2-0.2,0.5c-0.2,0.2-0.2,0.5-0.2,0.9c0,0.2-0.2,0.5-0.2,0.7  c-0.2,0.5-0.2,0.9-0.5,1c-0.2,0.2-0.2,0.4-0.2,0.8v0.2c0,0.2-0.2,0.5-0.2,0.9c0,0.2,0,0.2,0,0.5c0,0.2,0,0.5-0.2,0.9  c0,0.5,0,0.9,0,1.5c0,1.3,0,1.5,0.2,1.7l0,0c0,0,0,0,0.2,0h0.2c0.2,0.2,0.7,0.2,0.9,0.2c2.2,0.7,4.6,1.5,6.6,2.2c0,0,0.2,0,0.2,0.2  c0.2,0.2,0.5,0.2,0.9,0.2c0.2,0,0.2,0.2,0.5,0.2c0.3,0,0.3,0.4,0.5,0.4c0.2,0.2,0.5,0.2,0.7,0.2h0.2c0.2,0.2,0.7,0.2,0.9,0.2h0.2  c1.5,0.5,2.8,0.9,3.9,1.5c0.5,0.2,0.9,0.5,1.5,0.7c0.2,0.2,0.5,0.2,0.9,0.5c0.2,0,0.2,0.2,0.2,0.2c0.2,0.2,0.2,0.2,0.2,0.2  c0.2,0.2,0.2,0.2,0.2,0.2c0.2,0.2,0.2,0.2,0.2,0.2c0.2,0.2,0.2,0.2,0.2,0.2c0,0.2,0.2,0.2,0.2,0.2c0,0.2,0.2,0.2,0.2,0.2  s0,0.2,0.2,0.2c0,0.2,0.2,0.2,0.2,0.5v0.2c0,0.2,0,0.2,0.2,0.5v0.2c0,0.2,0,0.5,0,0.9c0,1.5,0,6.5,0,7.8v0.2c0,1-0.7,3-3,3  c0,0,0,0-0.2,0c-2.2,0-16.8,0-23.5,0c-2.2,0-3.4,0-3.4,0h-0.7c0,0-1.3,0-3.4,0c-6.6,0-21.3,0-23.5,0h0.1c-2.2,0-3-1.5-3-2.8v-0.2  v-7.8C35.2,81.8,36.2,79.5,38.8,78.5z"
     id="path311" /><path
     display="none"
     d="M38.8,78.5c2.8-1,8.4-3.2,13.4-4.7c0.7-0.2,1.3-0.2,1.7-0.7h0.2c0.5-0.2,1-0.2,1.5-0.5  c0.5-0.2,0.5-0.2,0.5-1.9c0-0.2,0-0.9-0.2-1c0-0.2-0.2-0.5-0.2-0.7s0-0.2-0.2-0.2c0-0.2-0.2-0.2-0.2-0.7c-0.2-0.5-0.5-0.9-0.7-1.5  c-0.2-0.2-0.2-0.9-0.5-1.3c0-0.2-0.2-0.2-0.2-0.5c-0.3-0.1-0.3-0.6-0.3-0.8c0-0.2-0.2-0.2-0.2-0.5c-0.2-0.2-0.2-0.7-0.2-0.9  c-0.2-0.2-0.2-0.7-0.2-1c0-0.2,0-0.2-0.2-0.5l0,0l0,0c-0.2-0.2-0.7-0.9-0.9-1.5l-0.3-0.2c0-0.2-0.2-0.2-0.2-0.5  c-0.2-0.2-0.2-0.5-0.2-0.9l0,0c-0.2-0.2-0.2-0.5-0.2-0.9l0,0C51,57.2,51,56.7,51,56.5l0,0c-0.2-0.2-0.2-0.9-0.2-1.3  c0-0.2-0.2-0.7-0.2-0.9v-0.2c0-0.2,0-0.5-0.2-0.7v-0.2c0-0.2,0-0.2,0-0.5c0-0.2,0-0.2,0-0.2c0-0.2,0-0.2,0-0.2c0-0.2,0-0.2,0-0.2V52  c0-0.2,0-0.2,0-0.5l0,0c0-0.2,0-0.2,0.2-0.5l0,0c0-0.2,0-0.2,0.2-0.2v-0.2l0,0l0,0c0,0,0-0.2,0.2-0.2l0,0v-0.2v-0.2  c0-0.9,0-2.8-0.2-4.6l0,0c0-0.2,0-0.7-0.2-0.9c0-0.2,0-0.2,0-0.2c0-0.2-0.2-0.7-0.2-0.9v-0.2c0-0.2,0-0.5-0.2-0.9  c0-1.3,0.2-3.2,0.9-4.9c0.5-1.3,1-2.4,1.9-3.7l0,0c0.2-0.2,0.5-0.7,0.9-0.9c0.2-0.2,0.2-0.2,0.5-0.5c0.2-0.2,0.2-0.2,0.2-0.2  c0.2-0.2,0.5-0.5,0.9-0.7l0.2-0.2c0.2-0.2,0.7-0.5,1-0.7h0.2c0.2-0.2,0.9-0.5,1.3-0.7h0.2c0.5-0.2,0.9-0.2,1.3-0.5  c0.2,0,0.2,0,0.2-0.2c0.5-0.2,0.9-0.2,1.5-0.2c0.2,0,0.2,0,0.2,0c0.7-0.2,1.3-0.2,1.9-0.2H65h1.5h0.2c0.2,0,0.9,0.2,1,0.2  s0.7,0,0.9,0.2c0.2,0,0.7,0.2,0.9,0.2c0.2,0,0.7,0.2,0.9,0.2c0.2,0.2,0.7,0.2,0.9,0.2c0.2,0.2,0.5,0.2,0.9,0.2  c0.2,0.2,0.5,0.2,0.9,0.2c0.2,0.2,0.5,0.2,0.7,0.2c0.2,0.2,0.5,0.2,0.7,0.5c0.2,0.2,0.2,0.2,0.5,0.2c0.2,0.2,0.5,0.2,0.7,0.5  c0.2,0.2,0.2,0.2,0.2,0.2c0.2,0.2,0.5,0.5,0.7,0.7l0.2,0.2c0.2,0.2,0.5,0.5,0.7,0.9c2.8,3.4,3,7.6,2.8,9.5v0.2  c0,0.2-0.2,0.5-0.2,0.9c-0.2,0.9-0.2,2.2-0.2,3v0.2c0,0.2,0,0.5,0,0.7c0,0.2,0,0.2,0,0.2s0,0.2,0,0.5c0,0.2,0,0.2,0,0.2  c0,0.2,0,0.5,0,0.7l0,0c0,0.2,0,0.2,0,0.5l0,0l0,0c0,0.2,0,0.2,0.2,0.2c0.2,0.7,0.2,1.3,0.5,1.9l0,0c0,0.2,0,0.2,0,0.5  c0,0.2,0,0.2,0,0.2c0,0.2,0,0.2,0,0.2c0,0.2,0,0.2,0,0.5s0,0.2,0,0.2c0,0.2-0.2,0.7-0.2,0.9c-0.7,3-1.5,4.7-2.2,5.8  c-0.4,0.4-0.4,0.4-0.4,0.4c-0.2,0.9-0.2,1.7-0.7,2.8c0,0.2,0,0.2-0.2,0.5c-0.2,0.2-0.2,0.5-0.2,0.9c0,0.2-0.2,0.5-0.2,0.7  c-0.2,0.5-0.2,0.9-0.5,1c-0.2,0.2-0.2,0.4-0.2,0.8v0.2c0,0.2-0.2,0.5-0.2,0.9c0,0.2,0,0.2,0,0.5c0,0.2,0,0.5-0.2,0.9  c0,0.5,0,0.9,0,1.5c0,1.3,0,1.5,0.2,1.7l0,0c0,0,0,0,0.2,0h0.2c0.2,0.2,0.7,0.2,0.9,0.2c2.2,0.7,4.6,1.5,6.6,2.2c0,0,0.2,0,0.2,0.2  c0.2,0.2,0.5,0.2,0.9,0.2c0.2,0,0.2,0.2,0.5,0.2c0.3,0,0.3,0.4,0.5,0.4c0.2,0.2,0.5,0.2,0.7,0.2h0.2c0.2,0.2,0.7,0.2,0.9,0.2h0.2  c1.5,0.5,2.8,0.9,3.9,1.5c0.5,0.2,0.9,0.5,1.5,0.7c0.2,0.2,0.5,0.2,0.9,0.5c0.2,0,0.2,0.2,0.2,0.2c0.2,0.2,0.2,0.2,0.2,0.2  c0.2,0.2,0.2,0.2,0.2,0.2c0.2,0.2,0.2,0.2,0.2,0.2c0.2,0.2,0.2,0.2,0.2,0.2c0,0.2,0.2,0.2,0.2,0.2c0,0.2,0.2,0.2,0.2,0.2  s0,0.2,0.2,0.2c0,0.2,0.2,0.2,0.2,0.5v0.2c0,0.2,0,0.2,0.2,0.5v0.2c0,0.2,0,0.5,0,0.9c0,1.5,0,6.5,0,7.8v0.2c0,1-0.7,3-3,3  c0,0,0,0-0.2,0c-2.2,0-16.8,0-23.5,0c-2.2,0-3.4,0-3.4,0h-0.7c0,0-1.3,0-3.4,0c-6.6,0-21.3,0-23.5,0h0.1c-2.2,0-3-1.5-3-2.8v-0.2  v-7.8C35.2,81.8,36.2,79.5,38.8,78.5z M113.6,52.3c1,0,1.9,0.9,1.9,1.9V58c0,1-0.9,1.9-1.9,1.9h-7.5v7.5c0,1-0.9,1.9-1.9,1.9h-3.8  c-1,0-1.9-0.9-1.9-1.9v-7.5H91c-1,0-1.9-0.9-1.9-1.9v-3.8c0-1,0.9-1.9,1.9-1.9h7.5v-7.5c0-1,0.9-1.9,1.9-1.9h3.8  c1,0,1.9,0.9,1.9,1.9v7.5H113.6L113.6,52.3z"
     id="path313" /><g
     display="none"
     id="g315"><rect
       x="31.8"
       y="31.9"
       display="inline"
       width="29.2"
       height="29.2"
       id="rect317" /><rect
       x="67.1"
       y="31.9"
       display="inline"
       width="29.2"
       height="29.2"
       id="rect319" /><rect
       x="31.8"
       y="67.6"
       display="inline"
       width="29.2"
       height="29.2"
       id="rect321" /><rect
       x="67.1"
       y="67.6"
       display="inline"
       width="29.2"
       height="29.2"
       id="rect323" /></g><g
     display="none"
     id="g325"><rect
       x="31.8"
       y="31.9"
       display="inline"
       width="64.6"
       height="11.3"
       id="rect327" /><rect
       x="31.8"
       y="49.8"
       display="inline"
       width="64.6"
       height="11.3"
       id="rect329" /><rect
       x="31.8"
       y="67.6"
       display="inline"
       width="64.6"
       height="11.3"
       id="rect331" /><rect
       x="31.8"
       y="85.5"
       display="inline"
       width="64.6"
       height="11.3"
       id="rect333" /></g><path
     display="none"
     d="M96.7,57.1l-8.5-6.9v-11c0-1.2-1-2.3-2.3-2.3h-5.3c-1.2,0-2.3,1-2.3,2.3v3L67,33c-0.8-0.7-1.9-1-3-1  c-1.1,0-2.2,0.4-3,1L31.3,57.1c-1.3,1.1-1.3,2.1-1.1,2.5c0.2,0.5,0.7,1.3,2.4,1.3h4.1v31.8c0,2.3,1.8,4.1,4.1,4.1h12.8  c2.2,0,4-1.8,4-4.1v-13c0-1.1,1-2.1,2.2-2.1h8.6c1.1,0,1.9,1,1.9,2.1v13c0,2.2,1.9,4.1,4.2,4.1h12.6c2.3,0,4.1-1.8,4.1-4.1V60.9h4.1  c1.7,0,2.3-0.8,2.4-1.3C97.9,59.2,98,58.2,96.7,57.1L96.7,57.1z"
     id="path335" /><g
     display="none"
     id="g337"><path
       display="inline"
       d="M87.2,98.3H74.6c-3.1,0-5.7-2.6-5.7-5.6v-13c0-0.4-0.2-0.6-0.4-0.6h-8.6c-0.3,0-0.7,0.3-0.7,0.6v13   c0,3.1-2.4,5.6-5.5,5.6H40.8c-3.1,0-5.6-2.5-5.6-5.6V62.4h-2.6c-2.7,0-3.6-1.6-3.8-2.3c-0.2-0.7-0.6-2.5,1.6-4.2L60,31.8   c1.1-0.9,2.5-1.4,4-1.4c1.5,0,2.9,0.5,4,1.4l8.9,7.2c0.1-2,1.7-3.6,3.8-3.6h5.3c2.1,0,3.8,1.7,3.8,3.8v10.3l7.9,6.5   c2.1,1.7,1.8,3.5,1.6,4.2c-0.2,0.7-1.1,2.3-3.8,2.3h-2.6v30.3C92.8,95.8,90.3,98.3,87.2,98.3z M59.8,76h8.6c1.9,0,3.4,1.6,3.4,3.6   v13c0,1.4,1.3,2.6,2.7,2.6h12.6c1.4,0,2.6-1.2,2.6-2.6V59.4h5.6c0.7,0,1-0.2,1-0.3c0-0.1-0.1-0.4-0.6-0.9v0l-9-7.4V39.2   c0-0.4-0.3-0.8-0.8-0.8h-5.3c-0.4,0-0.8,0.3-0.8,0.8v6.2L66.1,34.1c-1.1-0.9-3.1-0.9-4.2,0L32.3,58.3c-0.5,0.4-0.7,0.8-0.6,0.9   c0,0.1,0.3,0.3,1,0.3h5.6v33.3c0,1.4,1.2,2.6,2.6,2.6h12.8c1.4,0,2.5-1.1,2.5-2.6v-13C56.1,77.7,57.9,76,59.8,76z"
       id="path339" /></g><g
     display="none"
     id="g341"><path
       display="inline"
       d="M78.5,102.2H28.8C15.7,102.2,5,91.5,5,78.4C5,68,11.7,59.1,21,55.9c1.4-7.6,7.7-13.3,15.7-13.3   c2.6,0,5,0.8,7.1,1.8c5-10.3,15.5-17.5,27.8-17.5c17.1,0,30.8,13.7,30.8,30.8c0,0.4,0,0.6,0,1c12.1,0,21.8,9.7,21.6,21.7   c0,2.6-0.5,5.2-1.3,7.5c-0.2-0.3-0.5-0.5-0.8-0.8l-3.2-2.6v-4.1c0-3.5-2.8-6.3-6.3-6.3h-3.1c-0.9,0-1.8,0.2-2.7,0.6l-2.2-1.8   c-1.4-1.1-3.1-1.7-4.9-1.7c-1.8,0-3.6,0.6-4.9,1.7L77.1,87.1c-2.7,2.2-2.9,5.1-2.2,7c0.5,1.4,1.7,2.9,3.5,3.6V102.2z"
       id="path343" /><path
       display="inline"
       d="M119.9,91.1l-5-4.1v-6.5c0-0.7-0.6-1.3-1.3-1.3h-3.1c-0.7,0-1.3,0.6-1.3,1.3v1.8l-6.7-5.4   c-0.5-0.4-1.1-0.6-1.8-0.6c-0.7,0-1.3,0.2-1.8,0.6L81.4,91.1c-0.8,0.6-0.7,1.2-0.6,1.5c0.1,0.3,0.4,0.7,1.4,0.7h2.4v18.7   c0,1.3,1.1,2.4,2.4,2.4h7.5c1.3,0,2.4-1.1,2.4-2.4v-7.7c0-0.7,0.6-1.3,1.3-1.3h5.1c0.6,0,1.1,0.6,1.1,1.3v7.7   c0,1.3,1.1,2.4,2.5,2.4h7.4c1.3,0,2.4-1.1,2.4-2.4V93.3h2.4c1,0,1.3-0.5,1.4-0.7C120.7,92.3,120.7,91.8,119.9,91.1L119.9,91.1z"
       id="path345" /></g><path
     display="none"
     d="M30.1,56.3v-8.9c5.7,6.2,18.7,10.5,33.9,10.5s28.1-4.3,33.9-10.5v8.9c0,6.9-13.9,14.6-33.9,14.6  S30.1,63.2,30.1,56.3z M64,54.6c20.1,0,33.9-7.7,33.9-14.6c0-6.9-13.8-14.6-33.9-14.6S30.1,33.1,30.1,40  C30.1,46.9,43.9,54.6,64,54.6z M69.2,94.8h-0.6c-1.9,0-2.5-1.2-2.6-1.6c-0.1-0.4-0.5-1.7,1-3l0.4-0.4c-1.1,0.1-2.3,0.1-3.5,0.1  c-15.2,0-28.2-4-33.9-10.2v5.7v3.2c0,6.9,13.9,14.6,33.9,14.6c1.8,0,3.5-0.1,5.2-0.2V94.8z M64,87.1c2.5,0,4.9-0.1,7.2-0.3l10.8-8.8  c1.4-1.1,3.6-1.1,5,0l3.7,3c0.5-0.8,1.3-1.3,2.3-1.3h0.3c3-2.2,4.7-4.7,4.7-7.1v-8.9C92.1,69.8,79.2,74.1,64,74.1  s-28.2-4.4-33.9-10.6V67v5.5C30.1,79.4,44,87.1,64,87.1z M101.6,91.6l-4.3-3.5v-5.6c0-0.6-0.5-1.1-1.1-1.1h-2.7  c-0.6,0-1.1,0.5-1.1,1.1V84l-5.7-4.7c-0.4-0.3-1-0.5-1.5-0.5c-0.6,0-1.1,0.2-1.5,0.5l-15,12.3c-0.7,0.6-0.6,1-0.6,1.3  c0.1,0.2,0.4,0.6,1.2,0.6h2.1v16.1c0,1.2,0.9,2.1,2.1,2.1h6.5c1.1,0,2-0.9,2-2.1v-6.6c0-0.6,0.5-1.1,1.1-1.1h4.4c0.5,0,1,0.5,1,1.1  v6.6c0,1.1,1,2.1,2.1,2.1h6.4c1.1,0,2.1-0.9,2.1-2.1V93.5h2.1c0.9,0,1.2-0.4,1.2-0.6C102.3,92.7,102.3,92.2,101.6,91.6L101.6,91.6z"
     id="path347" /><path
     display="none"
     d="M117.3,109.8c0,1,0,3.7,0,4.3c0,0.6-0.3,1.6-1.6,1.6c-1,0-9.1,0-12.8,0c-1.1,0-1.8,0-1.8,0h-0.3  c0,0-0.7,0-1.8,0c-3.7,0-11.8,0-12.8,0c-1.3,0-1.6-1-1.6-1.6c0-0.6,0-3.4,0-4.3c0-1,0.3-2,1.6-2.6c1.7-0.7,6.3-2.3,9.2-3.2  c0.3,0,0.3-0.1,0.3-1c0-1-0.1-1.8-0.3-2.3c-0.3-0.7-0.8-2-1-3.1c-0.4-0.5-1-1.5-1.4-3.3c-0.3-1.6-0.2-2.3,0-2.8  c0.1-0.1,0.1-0.1,0.1-0.2c0-0.4-0.1-2.3-0.3-3.9c-0.2-1,0-3.3,1.5-5.1c1-1.1,2.7-2.6,5.8-2.8h1.7c3.2,0.2,4.9,1.6,5.9,2.8  c1.4,1.8,1.6,4.1,1.5,5.1c-0.3,1.6-0.4,3.6-0.3,3.9c0,0.1,0.1,0.1,0.1,0.2c0.2,0.5,0.3,1.1,0,2.8c-0.4,1.8-1,2.8-1.4,3.3  c-0.2,1.1-0.6,2.3-1,3.1c-0.3,0.7-0.7,1.6-0.7,2.3c0,1,0,1,0.3,1c2.8,0.9,7.3,2.4,9.2,3.2C116.4,107.8,117.3,108.8,117.3,109.8z   M90.9,100.1c-0.2-0.6-0.4-1.3-0.6-1.9C89.6,97,89,95.6,88.7,94c-0.4-1.9-0.3-3.2,0-4.3c0-0.7-0.1-1.7-0.3-2.6  c-0.3-2.1,0.1-5.5,2.3-8.4c2.2-2.6,5.2-4.1,8.7-4.3l2-0.1c3.8,0.2,6.8,1.5,9,4.1c2.2,2.9,2.7,6.1,2.4,8.3c-0.1,0.5-0.2,1.2-0.3,1.2  h0l0,1.5c0.3,1.1,0.3,2.8-0.1,4.7c-0.4,1.7-0.9,3-1.5,4c-0.1,0.6-0.3,1.1-0.5,1.6c7.3-3.5,12.9-11,12.9-19.8  c0.2-11.9-10.2-21.7-21.2-21.7c0-0.4,0-0.6,0-1c0-17.1-14.2-30.9-31.3-30.9c-12.3,0-23.1,7.2-28.1,17.5c-2.2-1-4.7-1.8-7.3-1.8  c-8,0-14.4,5.8-15.8,13.3c-9.4,3.2-16.2,12-16.2,22.4c0,13.1,10.7,23.8,23.9,23.8h58.8C87.5,101.7,89.1,100.7,90.9,100.1z"
     id="path349" /><path
     display="none"
     d="M103.5,71.9V56.3h-8.7c-0.6-3-1.9-5.6-3.3-8.3l6.1-6.1L86.5,30.9l-5.9,5.9c-2.5-1.6-5.3-2.8-8.3-3.6V25H56.7  v8.3c-3,0.8-5.8,2-8.3,3.6l-5.9-5.9L31.4,42l6.1,6.1c-1.4,2.5-2.5,5.3-3.3,8.3h-8.7v15.6h8.9c0.8,2.8,1.9,5.5,3.4,7.8l-6.4,6.4  l11.1,11.1l6.5-6.5c2.3,1.4,5,2.5,7.6,3.1v9.4h15.6v-9.4c2.8-0.8,5.3-1.7,7.6-3.1l6.5,6.5l11.1-11.1l-6.4-6.4c1.4-2.3,2.7-5,3.4-7.8  H103.5z M64.5,75.1c-6.1,0-10.9-4.8-10.9-10.9c0-6.1,4.8-10.9,10.9-10.9s10.9,4.8,10.9,10.9C75.4,70.2,70.6,75.1,64.5,75.1z"
     id="path351" /><g
     display="none"
     id="g353"><path
       display="inline"
       d="M99.4,32.8h-23c-0.7-4.4-4.5-7.8-9.1-7.8h-27c-5.1,0-9.3,4.2-9.3,9.3v2.2h-1.4c-5.1,0-9.3,4.2-9.3,9.3   v54.6c0,1.5,1.2,2.6,2.6,2.6h72.4c1.5,0,2.6-1.2,2.6-2.6v-8.9h8.1c1.5,0,2.6-1.2,2.6-2.6V42.1C108.7,37,104.5,32.8,99.4,32.8   L99.4,32.8z M65.8,44.3c-0.7-4.4-4.5-7.8-9.1-7.8H36.3v-2.2c0-2.2,1.8-4,4-4h27c2.2,0,4,1.8,4,4v1.2c0,1.5,1.2,2.6,2.6,2.6h25.5   c2.2,0,4,1.8,4,4v44.1H98V53.6c0-5.1-4.2-9.3-9.3-9.3H65.8z M92.7,97.7H25.6V45.8c0-2.2,1.8-4,4-4h27c2.2,0,4,1.8,4,4v1.2   c0,1.5,1.2,2.6,2.6,2.6h25.5c2.2,0,4,1.8,4,4V97.7z M92.7,97.7"
       id="path355" /></g><polygon
     display="none"
     points="88.3,70.3 88.3,62.2 65.6,62.2 65.6,57.4 80.2,57.4 80.2,25 47.8,25 47.8,57.4 62.4,57.4 62.4,62.2   39.7,62.2 39.7,70.3 25.1,70.3 25.1,102.7 57.5,102.7 57.5,70.3 43,70.3 43,65.5 85,65.5 85,70.3 70.5,70.3 70.5,102.7 102.9,102.7   102.9,70.3 "
     id="polygon357" /><path
     display="none"
     d="M42.2,35.7c0-6,4.9-10.9,10.9-10.9c6,0,10.9,4.9,10.9,10.9c0,6-4.9,10.9-10.9,10.9  C47.1,46.6,42.2,41.7,42.2,35.7L42.2,35.7z M58.4,54c0.1-2.4,0.9-4.6,2.2-6.4c-0.9-0.2-1.9-0.3-2.9-0.3h-9.2c-1,0-1.9,0.1-2.8,0.3  c1.4,1.9,2.2,4.3,2.3,6.9c1.7-0.9,3.7-1.5,5.7-1.5C55.3,53,56.9,53.4,58.4,54L58.4,54z M60.2,55c3.2,2,5.4,5.3,5.8,9.2  c1.3,0.6,2.7,1,4.2,1c5.5,0,10-4.5,10-10s-4.5-10-10-10C64.7,45.1,60.3,49.5,60.2,55L60.2,55z M53.6,75.5c5.5,0,10-4.5,10-10  c0-5.5-4.5-10-10-10c-5.5,0-10,4.5-10,10C43.6,71.1,48.1,75.5,53.6,75.5L53.6,75.5z M57.9,76.2h-8.5c-7.1,0-12.9,5.8-12.9,12.9v10.4  l0,0.2l0.7,0.2c6.8,2.1,12.6,2.8,17.5,2.8c9.5,0,14.9-2.7,15.3-2.9l0.7-0.3h0.1V89.1C70.7,82,65,76.2,57.9,76.2L57.9,76.2z   M74.5,65.9H66c-0.1,3.4-1.5,6.4-3.8,8.6c6.3,1.9,10.9,7.7,10.9,14.6v3.2c8.3-0.3,13.2-2.7,13.5-2.8l0.7-0.3h0.1V78.7  C87.4,71.6,81.6,65.9,74.5,65.9L74.5,65.9z M76.8,44.9c3.2,2,5.4,5.3,5.8,9.2c1.3,0.6,2.7,1,4.2,1c5.5,0,10-4.5,10-10  c0-5.5-4.5-10-10-10C81.3,35,76.8,39.4,76.8,44.9L76.8,44.9z M91.1,55.8h-8.5c-0.1,3.4-1.5,6.4-3.8,8.6c6.3,1.9,10.9,7.7,10.9,14.6  v3.2c8.3-0.3,13.2-2.7,13.5-2.8l0.7-0.3h0.1V68.6C103.9,61.5,98.1,55.8,91.1,55.8L91.1,55.8z M36,65.2c2,0,3.8-0.6,5.3-1.6  c0.5-3.2,2.2-6,4.7-7.9c0-0.2,0-0.4,0-0.6c0-5.5-4.5-10-10-10c-5.5,0-10,4.5-10,10C26,60.7,30.5,65.2,36,65.2L36,65.2z M45,74.5  c-2.3-2.2-3.7-5.2-3.8-8.6c-0.3,0-0.6,0-0.9,0h-8.5c-7.1,0-12.9,5.8-12.9,12.9v10.4l0,0.2l0.7,0.2c5.4,1.7,10.3,2.5,14.5,2.7v-3.1  C34.1,82.2,38.7,76.4,45,74.5L45,74.5z M45,74.5"
     id="path359" /><g
     display="none"
     id="g361"><g
       display="inline"
       id="g363"><path
         d="M62.8,103.9c-21.6,0-39.2-17.6-39.2-39.2c0-21.6,17.6-39.2,39.2-39.2s39.2,17.6,39.2,39.2    C102.1,86.3,84.5,103.9,62.8,103.9z M62.8,28.7c-19.8,0-36,16.1-36,36s16.1,36,36,36c19.8,0,36-16.1,36-36S82.6,28.7,62.8,28.7z"
         id="path365" /></g><g
       display="inline"
       id="g367"><defs
         id="defs369"><circle
           id="SVGID_1_"
           cx="62.9"
           cy="65.3"
           r="37.6" /></defs><clipPath
         id="SVGID_2_"><use
           xlink:href="#SVGID_1_"
           overflow="visible"
           id="use373" /></clipPath><g
         clip-path="url(#SVGID_2_)"
         id="g375"><g
           id="g377"><path
             d="M50.3,89.9c2.4-1,7.4-2.8,11.7-4.2c0.6-0.1,1.1-0.3,1.5-0.6h0.1c0.4-0.1,1-0.3,1.4-0.4c0.4-0.1,0.4-0.1,0.4-1.7      c0-0.3,0-0.7-0.1-1c0-0.1-0.1-0.4-0.1-0.6c0-0.1,0-0.3-0.1-0.3c0-0.1-0.1-0.3-0.1-0.6c-0.1-0.4-0.4-0.8-0.6-1.3      c-0.1-0.3-0.3-0.7-0.4-1.1c0-0.1-0.1-0.3-0.1-0.4c-0.1-0.3-0.1-0.6-0.3-0.8c0-0.1-0.1-0.3-0.1-0.4c-0.1-0.3-0.1-0.6-0.3-0.8      c-0.1-0.3-0.1-0.6-0.1-1c0-0.1,0-0.3-0.1-0.4l0,0l0,0c-0.3-0.3-0.6-0.7-0.8-1.3c0,0-0.1-0.1-0.1-0.3c0-0.1-0.1-0.3-0.1-0.4      c-0.1-0.1-0.1-0.4-0.3-0.7l0,0c-0.1-0.3-0.1-0.4-0.3-0.7l0,0c-0.1-0.3-0.1-0.6-0.3-0.8l0,0c-0.1-0.3-0.1-0.7-0.3-1.1      c0-0.3-0.1-0.6-0.1-0.8v-0.1c0-0.1,0-0.4-0.1-0.6v-0.1c0-0.1,0-0.3,0-0.4s0-0.1,0-0.3c0-0.1,0-0.1,0-0.3c0-0.1,0-0.1,0-0.3V66      c0-0.1,0-0.3,0-0.4l0,0c0-0.1,0-0.3,0.1-0.4l0,0c0-0.1,0-0.1,0.1-0.3v-0.1l0,0l0,0c0,0,0-0.1,0.1-0.3l0,0v-0.1v-0.1      c0-0.8,0-2.4-0.3-3.9l0,0c0-0.3,0-0.6-0.1-0.7c0-0.1,0-0.1,0-0.3c0-0.3-0.1-0.6-0.1-0.8v-0.1c0-0.3,0-0.4-0.1-0.7      c0-1.1,0.1-2.8,0.7-4.3c0.4-1.1,1-2.1,1.7-3.2l0,0c0.3-0.3,0.4-0.6,0.7-0.8c0.1-0.1,0.3-0.3,0.4-0.4s0.3-0.3,0.3-0.3      c0.3-0.1,0.4-0.4,0.7-0.6l0.1-0.1c0.3-0.1,0.6-0.4,1-0.6h0.1c0.3-0.1,0.7-0.4,1.1-0.6h0.1c0.4-0.1,0.7-0.3,1.1-0.4      c0.1,0,0.1,0,0.3-0.1c0.4-0.1,0.8-0.1,1.3-0.3c0.1,0,0.3,0,0.3,0c0.6-0.1,1.1-0.1,1.7-0.1h1.4h1.3h0.1c0.3,0,0.7,0.1,1,0.1      s0.6,0,0.8,0.1c0.3,0,0.6,0.1,0.8,0.1c0.3,0,0.6,0.1,0.8,0.1c0.3,0.1,0.6,0.1,0.7,0.3c0.3,0.1,0.4,0.1,0.7,0.3      c0.3,0.1,0.4,0.3,0.7,0.3c0.1,0.1,0.4,0.1,0.6,0.3c0.3,0.1,0.4,0.3,0.6,0.4c0.1,0.1,0.3,0.1,0.4,0.3c0.3,0.1,0.4,0.3,0.6,0.4      c0.1,0.1,0.1,0.1,0.3,0.3c0.3,0.1,0.4,0.4,0.6,0.6l0.1,0.1c0.3,0.3,0.4,0.4,0.6,0.7c2.4,2.9,2.7,6.6,2.4,8.2v0.1      c0,0.3-0.1,0.4-0.1,0.7c-0.1,0.8-0.3,1.8-0.3,2.7v0.1c0,0.1,0,0.4,0,0.6c0,0.1,0,0.1,0,0.3c0,0.1,0,0.3,0,0.4s0,0.1,0,0.3      c0,0.3,0,0.4,0,0.6l0,0c0,0.1,0,0.3,0,0.4l0,0l0,0c0,0.1,0,0.1,0.1,0.3c0.1,0.6,0.3,1.1,0.4,1.7l0,0c0,0.1,0,0.3,0,0.4      s0,0.1,0,0.3c0,0.1,0,0.3,0,0.3c0,0.1,0,0.3,0,0.4s0,0.1,0,0.3c0,0.3-0.1,0.6-0.1,0.8c-0.6,2.7-1.3,4.1-2,5      c-0.1,0.1-0.1,0.3-0.3,0.3c-0.1,0.8-0.3,1.5-0.6,2.4c0,0.1,0,0.3-0.1,0.4c-0.1,0.3-0.1,0.4-0.3,0.7c0,0.1-0.1,0.4-0.1,0.6      c-0.1,0.4-0.3,0.7-0.4,1c-0.1,0.3-0.1,0.4-0.3,0.7v0.1c0,0.3-0.1,0.4-0.1,0.7c0,0.1,0,0.3,0,0.4s0,0.4-0.1,0.7      c0,0.4,0,0.7,0,1.3c0,1.1,0,1.4,0.1,1.5l0,0c0,0,0,0,0.1,0h0.1c0.3,0.1,0.6,0.1,0.8,0.3c1.8,0.6,3.9,1.3,5.9,2      c0,0,0.1,0,0.3,0.1c0.3,0.1,0.4,0.1,0.7,0.3c0.1,0,0.3,0.1,0.4,0.1c0.1,0,0.3,0.1,0.4,0.1c0.1,0.1,0.4,0.1,0.6,0.3h0.1      c0.3,0.1,0.6,0.1,0.8,0.3h0.1c1.3,0.4,2.4,0.8,3.4,1.3c0.4,0.1,0.8,0.4,1.3,0.6c0.3,0.1,0.4,0.3,0.7,0.4c0.1,0,0.1,0.1,0.3,0.1      c0.1,0.1,0.3,0.1,0.3,0.3c0.1,0.1,0.1,0.1,0.3,0.3c0.1,0.1,0.1,0.1,0.3,0.3c0.1,0.1,0.1,0.1,0.3,0.3c0,0.1,0.1,0.1,0.1,0.3      c0,0.1,0.1,0.3,0.1,0.3s0,0.1,0.1,0.1c0,0.1,0.1,0.3,0.1,0.4v0.1c0,0.1,0,0.3,0.1,0.4v0.1c0,0.3,0,0.4,0,0.7c0,1.4,0,5.7,0,6.8      v0.1c0,1-0.6,2.7-2.7,2.7c0,0,0,0-0.1,0c-1.8,0-14.7,0-20.5,0c-1.8,0-2.9,0-2.9,0h-0.6c0,0-1.1,0-2.9,0c-5.9,0-18.6,0-20.5,0      h-0.1c-2,0-2.7-1.4-2.7-2.5v-0.3v-6.8C47.1,92.7,48.1,90.8,50.3,89.9z"
             id="path379" /></g><g
           id="g381"><path
             d="M27.4,87c2.5-1,8.4-3.1,11.9-4.2c0.3-0.1,0.4-0.1,0.4-1.4c0-1.1-0.4-2.1-0.8-3.1c-0.4-1-1-2.7-1.3-4.1      c-0.6-0.7-1.3-2-1.8-4.3c-0.4-2.1-0.3-2.9,0-3.6c0-0.1,0-0.1,0.1-0.3c0.1-0.6,0-3.1-0.4-5c-0.3-1.4,0-4.3,2-6.7      c1.3-1.5,3.5-3.4,7.7-3.6h2.2c4,0.3,6.4,2.1,7.5,3.6c1.8,2.4,2.2,5.3,2,6.7c-0.4,2-0.6,4.6-0.4,5c0,0.1,0,0.1,0.1,0.3      c0.3,0.7,0.4,1.5,0,3.6c-0.4,2.4-1.3,3.6-1.8,4.3c-0.1,1.5-0.7,3.1-1.3,4.1C53.3,79,53,80,53,81.4c0,1.3,0,1.3,0.3,1.4      c1.3,0.4,2.7,0.8,4.2,1.4c-3.4,1.1-6.7,2.4-8.5,3.1c-3.4,1.4-4.9,4.5-4.9,6.8v4.1c-0.3,0-0.4,0-0.7,0c-4.7,0-15.4,0-16.6,0      c-1.7,0-2.2-1.4-2.2-2.2c0-0.8,0-4.5,0-5.6C24.8,89.2,25.6,87.7,27.4,87z"
             id="path383" /></g></g></g></g><g
     display="none"
     id="g385"><path
       display="inline"
       d="M55.7,56.6c-0.5-1.1-1.1-2.9-1.4-4.5c-0.6-0.8-1.5-2.2-2.1-4.9c-0.5-2.4-0.3-3.3,0-4.1   c0.1-0.1,0.1-0.1,0.1-0.3c0-0.6-0.1-3.5-0.5-5.8c-0.3-1.5,0-4.9,2.2-7.6c1.4-1.7,4-3.9,8.6-4.1h2.6c4.8,0.3,7.3,2.4,8.7,4.1   c2.1,2.7,2.4,6,2.2,7.6c-0.5,2.3-0.6,5.3-0.5,5.8c0,0.1,0.1,0.1,0.1,0.3c0.3,0.8,0.5,1.7,0,4.1c-0.6,2.7-1.4,4.1-2.1,4.9   c-0.3,1.7-0.9,3.5-1.4,4.6C72.4,56.7,64.4,66.1,55.7,56.6z"
       id="path387" /><path
       display="inline"
       d="M92.3,97.3v-20c0-5.5-3.5-10.4-8.8-12.1l0,0l-7.7-1.3c-0.7-0.2-1.4,0.1-1.6,0.8l-8.7,23.9   c-0.5,1.4-2.5,1.4-3,0l-8.7-23.9c-0.2-0.5-0.7-0.8-1.2-0.8c-0.1,0-8.1,1.3-8.1,1.3c-5.3,1.8-8.8,6.7-8.8,12.2v19.9   c0,3,2.4,5.4,5.4,5.4h45.8C89.9,102.7,92.3,100.3,92.3,97.3L92.3,97.3z M92.3,97.3"
       id="path389" /><path
       display="inline"
       d="M67.2,63.7c-0.3-0.4-0.8-0.5-1.3-0.5h-3.7c-0.5,0-1,0.2-1.3,0.5c-0.5,0.6-0.6,1.4-0.2,2l2,3l-0.9,7.8   l1.8,4.8c0.2,0.5,0.9,0.5,1,0l1.8-4.8l-0.9-7.8l2-3C67.8,65,67.7,64.2,67.2,63.7L67.2,63.7z M67.2,63.7"
       id="path391" /></g><path
     display="none"
     d="M87.6,70.6v-8.1H64.9v-4.9h14.6V25.3H47.1v32.4h14.6v4.9H39v8.1H24.4v32.4h32.4V70.6H42.3v-4.9h42v4.9H69.8  V103h32.4V70.6H87.6z M95.6,88.3c0,0.7-0.6,1.3-1.3,1.3h-5.1v5.1c0,0.7-0.6,1.3-1.3,1.3h-2.6c-0.7,0-1.3-0.6-1.3-1.3v-5.1h-5.1  c-0.7,0-1.3-0.6-1.3-1.3v-2.6c0-0.7,0.6-1.3,1.3-1.3H84v-5.1c0-0.7,0.6-1.3,1.3-1.3h2.6c0.7,0,1.3,0.6,1.3,1.3v5.1h5.1  c0.7,0,1.3,0.6,1.3,1.3V88.3z"
     id="path393" /><g
     display="none"
     id="g395"><path
       display="inline"
       d="M93.1,36.4C85.8,29,76,25,65.5,25C54.9,25,45,29.2,37.6,36.8c-0.8,0.8-0.8,2.2,0,3c0.8,0.8,2.2,0.8,3,0   c6.6-6.8,15.5-10.5,24.9-10.5c19.2,0,34.8,15.6,34.8,34.8c0,19.2-15.6,34.8-34.8,34.8S30.7,83.2,30.7,64v-0.4l3.5,3.5   c0.4,0.4,0.9,0.6,1.5,0.6c0.5,0,1.1-0.2,1.5-0.6c0.8-0.8,0.8-2.2,0-3l-7-7.1c-0.8-0.8-2.2-0.8-3,0L20.1,64c-0.8,0.8-0.8,2.2,0,3   c0.4,0.4,0.9,0.6,1.5,0.6c0.5,0,1.1-0.2,1.5-0.6l3.5-3.5V64c0,10.4,4.1,20.2,11.4,27.6c7.4,7.4,17.2,11.4,27.6,11.4   c10.4,0,20.2-4.1,27.6-11.4c7.4-7.4,11.4-17.2,11.4-27.6C104.6,53.6,100.5,43.8,93.1,36.4L93.1,36.4z M93.1,36.4"
       id="path397" /><path
       display="inline"
       d="M65.5,41.3c-6.8,0-12.4,5.5-12.4,12.4v6h-3.9c-1.2,0-2.1,0.9-2.1,2.1v20.9c0,1.2,0.9,2.1,2.1,2.1h32.5   c1.2,0,2.1-0.9,2.1-2.1V61.8c0-1.2-0.9-2.1-2.1-2.1h-3.8v-6C77.9,46.9,72.4,41.3,65.5,41.3L65.5,41.3z M57.4,53.7   c0-4.5,3.7-8.2,8.2-8.2s8.2,3.7,8.2,8.2v6H57.4V53.7z M79.7,80.6H51.4V63.9h28.3V80.6z M79.7,80.6"
       id="path399" /></g><g
     id="_x3C_Group_x3E__3_"
     style="fill:#ef8200;fill-opacity:1"
     transform="matrix(0.8,0,0,0.8,14.91,12.6)"><path
       d="m 29.6,32.6 c -9.7,9.7 -9.7,25.3 0,35 6.8,6.8 16.7,8.8 25.3,6 l 7.9,7.9 c 0,0 6.7,-5.7 10.5,-1.9 2.6,2.6 0.5,6.9 -0.3,9.8 -0.3,1.3 -1.2,4.1 2.8,2.8 2.1,-0.6 6.5,-3.3 9.9,0.1 3.4,3.4 -0.6,10.8 -0.6,10.8 l 15.3,0 0,-15.4 L 70.5,57.9 C 73.3,49.3 71.4,39.4 64.5,32.6 54.9,23 39.2,23 29.6,32.6 Z m 2.7,28.1 c -4.8,-7.1 -4.1,-16.8 2.2,-23.1 6.3,-6.3 16,-7 23.1,-2.2 L 32.3,60.7 Z"
       id="path402"
       style="fill:#ef8200;fill-opacity:1"
       inkscape:connector-curvature="0" /></g></svg>
