<?xml version="1.0" encoding="UTF-8" standalone="no"?>
<svg
   id="Layer_1"
   viewBox="0 0 315 249.99999"
   version="1.1"
   sodipodi:docname="egi-logo-white.svg"
   width="315"
   height="250"
   inkscape:version="1.4 (1:1.4+202410161351+e7c3feb100)"
   xmlns:inkscape="http://www.inkscape.org/namespaces/inkscape"
   xmlns:sodipodi="http://sodipodi.sourceforge.net/DTD/sodipodi-0.dtd"
   xmlns="http://www.w3.org/2000/svg"
   xmlns:svg="http://www.w3.org/2000/svg">
  <sodipodi:namedview
     id="namedview41"
     pagecolor="#ffffff"
     bordercolor="#666666"
     borderopacity="1.0"
     inkscape:showpageshadow="2"
     inkscape:pageopacity="0.0"
     inkscape:pagecheckerboard="0"
     inkscape:deskcolor="#d1d1d1"
     inkscape:zoom="1.5442844"
     inkscape:cx="133.71889"
     inkscape:cy="9.3894624"
     inkscape:window-width="1302"
     inkscape:window-height="1376"
     inkscape:window-x="1258"
     inkscape:window-y="27"
     inkscape:window-maximized="0"
     inkscape:current-layer="Layer_1" />
  <defs
     id="defs1">
    <style
       id="style1">.cls-1{fill:#fff;}</style>
  </defs>
  <g
     id="g41"
     transform="translate(32.501622,30.215)"
     style="fill:#ffffff">
    <path
       class="cls-1"
       d="M 131.12,9.02 C 131.82,3.8 136.28,0 141.41,0 v 0 c 0.46,0 0.93,0.03 1.39,0.09 v 0 c 5.69,0.76 9.69,5.99 8.93,11.68 v 0 c -0.76,5.69 -6,9.69 -11.68,8.93 v 0 c -5.69,-0.76 -9.69,-5.99 -8.94,-11.68 v 0 z"
       id="path1"
       style="fill:#ffffff" />
    <path
       class="cls-1"
       d="m 105.69,0.45 c 0.53,-0.08 1.06,-0.12 1.59,-0.12 v 0 c 5.04,0 9.47,3.68 10.26,8.82 v 0 c 0.87,5.68 -3.02,10.98 -8.7,11.85 v 0 c -5.67,0.87 -10.98,-3.02 -11.85,-8.7 v 0 c -0.87,-5.67 3.03,-10.98 8.7,-11.85 z"
       id="path2"
       style="fill:#ffffff" />
    <path
       class="cls-1"
       d="m 70.14,11.32 c 1.43,-0.67 2.94,-1 4.43,-1 v 0 c 3.9,0 7.63,2.2 9.4,5.96 v 0 c 2.45,5.19 0.24,11.39 -4.96,13.84 v 0 c -5.19,2.45 -11.39,0.24 -13.84,-4.96 v 0 C 62.72,19.97 64.94,13.77 70.13,11.32 v 0 z"
       id="path3"
       style="fill:#ffffff" />
    <path
       class="cls-1"
       d="m 195.27,31.3 c 2.05,-2.4 4.96,-3.63 7.89,-3.63 v 0 c 2.4,0 4.8,0.83 6.77,2.51 v 0 c 4.34,3.74 4.86,10.3 1.11,14.65 v 0 c -3.74,4.36 -10.3,4.86 -14.66,1.12 v 0 c -4.36,-3.74 -4.86,-10.3 -1.12,-14.66 v 0 z"
       id="path4"
       style="fill:#ffffff" />
    <path
       class="cls-1"
       d="m 39.16,31.84 c 1.98,-1.76 4.45,-2.64 6.92,-2.64 v 0 c 2.86,0 5.71,1.17 7.76,3.48 v 0 c 3.82,4.28 3.45,10.86 -0.83,14.68 v 0 c -4.28,3.82 -10.85,3.45 -14.67,-0.84 v 0 C 34.52,42.24 34.89,35.67 39.17,31.84 v 0 z"
       id="path5"
       style="fill:#ffffff" />
    <path
       class="cls-1"
       d="m 220,55.07 c 1.75,-1.13 3.71,-1.68 5.65,-1.68 v 0 c 3.41,0 6.74,1.67 8.73,4.74 v 0 c 3.11,4.82 1.75,11.25 -3.07,14.38 v 0 c -4.82,3.12 -11.25,1.75 -14.38,-3.06 v 0 C 213.82,64.63 215.18,58.2 220,55.07 Z"
       id="path6"
       style="fill:#ffffff" />
    <path
       class="cls-1"
       d="m 15.25,60.26 c 1.97,-3.17 5.37,-4.91 8.84,-4.91 v 0 c 1.87,0 3.77,0.51 5.48,1.57 v 0 c 4.87,3.03 6.37,9.44 3.34,14.31 v 0 c -3.03,4.88 -9.44,6.37 -14.31,3.34 v 0 C 13.72,71.54 12.23,65.13 15.26,60.25 v 0 z"
       id="path7"
       style="fill:#ffffff" />
    <path
       class="cls-1"
       d="M 0.37,94.32 C 1.63,89.7 5.82,86.67 10.39,86.67 v 0 c 0.91,0 1.83,0.12 2.75,0.37 v 0 c 5.54,1.52 8.79,7.24 7.28,12.78 v 0 c -1.52,5.53 -7.23,8.79 -12.77,7.27 v 0 C 2.11,105.57 -1.15,99.86 0.37,94.32 Z"
       id="path8"
       style="fill:#ffffff" />
    <path
       class="cls-1"
       d="m 129.49,30.75 c 0.5,-3.7 3.67,-6.39 7.29,-6.39 v 0 c 0.33,0 0.65,0.02 0.99,0.06 v 0 c 4.03,0.54 6.86,4.25 6.32,8.28 v 0 c -0.54,4.03 -4.24,6.86 -8.27,6.33 v 0 c -4.04,-0.54 -6.88,-4.25 -6.34,-8.28 v 0 z"
       id="path9"
       style="fill:#ffffff" />
    <path
       class="cls-1"
       d="m 111.45,24.67 c 0.38,-0.06 0.75,-0.08 1.12,-0.08 v 0 c 3.58,0 6.71,2.61 7.27,6.25 v 0 c 0.62,4.02 -2.14,7.78 -6.17,8.4 v 0 c -4.02,0.62 -7.78,-2.15 -8.4,-6.17 v 0 c -0.62,-4.02 2.15,-7.78 6.17,-8.4 v 0 z"
       id="path10"
       style="fill:#ffffff" />
    <path
       class="cls-1"
       d="m 153.37,35.33 c 1.22,-2.73 3.92,-4.35 6.73,-4.35 v 0 c 1.01,0 2.03,0.21 3.01,0.65 v 0 c 3.71,1.67 5.37,6.03 3.7,9.74 v 0 c -1.66,3.71 -6.02,5.37 -9.74,3.7 v 0 c -3.71,-1.66 -5.37,-6.02 -3.7,-9.74 z"
       id="path11"
       style="fill:#ffffff" />
    <path
       class="cls-1"
       d="m 86.26,32.37 c 1.01,-0.47 2.09,-0.7 3.14,-0.7 v 0 c 2.76,0 5.41,1.56 6.67,4.22 v 0 c 1.74,3.68 0.16,8.07 -3.52,9.81 v 0 c -3.68,1.74 -8.07,0.17 -9.81,-3.51 v 0 C 81,38.51 82.58,34.12 86.26,32.38 v 0 z"
       id="path12"
       style="fill:#ffffff" />
    <path
       class="cls-1"
       d="m 174.95,46.54 c 1.45,-1.7 3.51,-2.57 5.58,-2.57 v 0 c 1.7,0 3.41,0.58 4.8,1.78 v 0 c 3.09,2.65 3.44,7.3 0.79,10.39 v 0 c -2.65,3.09 -7.3,3.44 -10.39,0.79 v 0 c -3.09,-2.65 -3.44,-7.3 -0.79,-10.39 v 0 z"
       id="path13"
       style="fill:#ffffff" />
    <path
       class="cls-1"
       d="m 64.3,46.92 c 1.41,-1.25 3.16,-1.87 4.9,-1.87 v 0 c 2.03,0 4.04,0.83 5.5,2.46 v 0 c 2.71,3.04 2.44,7.69 -0.59,10.4 v 0 c -3.04,2.71 -7.69,2.44 -10.4,-0.59 v 0 C 61,54.28 61.27,49.63 64.3,46.91 v 0 z"
       id="path14"
       style="fill:#ffffff" />
    <path
       class="cls-1"
       d="m 192.48,63.39 c 1.24,-0.8 2.63,-1.19 4.01,-1.19 v 0 c 2.41,0 4.77,1.18 6.18,3.36 v 0 c 2.21,3.41 1.24,7.98 -2.17,10.19 v 0 c -3.41,2.22 -7.98,1.24 -10.19,-2.17 v 0 c -2.21,-3.41 -1.24,-7.98 2.17,-10.19 z"
       id="path15"
       style="fill:#ffffff" />
    <path
       class="cls-1"
       d="m 47.35,67.06 c 1.4,-2.24 3.8,-3.48 6.27,-3.48 v 0 c 1.33,0 2.67,0.36 3.88,1.11 v 0 c 3.46,2.15 4.52,6.7 2.37,10.15 v 0 c -2.15,3.45 -6.69,4.51 -10.15,2.36 v 0 C 46.26,75.05 45.21,70.51 47.35,67.05 v 0 z"
       id="path16"
       style="fill:#ffffff" />
    <path
       class="cls-1"
       d="m 36.81,91.21 c 0.89,-3.27 3.87,-5.43 7.1,-5.43 v 0 c 0.65,0 1.3,0.09 1.95,0.26 v 0 c 3.92,1.08 6.24,5.13 5.16,9.06 v 0 c -1.07,3.92 -5.13,6.23 -9.05,5.15 v 0 c -3.92,-1.07 -6.23,-5.12 -5.16,-9.04 z"
       id="path17"
       style="fill:#ffffff" />
    <path
       class="cls-1"
       d="m 128.15,48.47 c 0.34,-2.47 2.44,-4.26 4.87,-4.26 v 0 c 0.22,0 0.44,0.01 0.66,0.05 v 0 c 2.69,0.36 4.58,2.83 4.21,5.52 v 0 c -0.35,2.69 -2.83,4.58 -5.52,4.22 v 0 c -2.69,-0.36 -4.57,-2.83 -4.22,-5.52 v 0 z"
       id="path18"
       style="fill:#ffffff" />
    <path
       class="cls-1"
       d="m 116.13,44.42 c 0.25,-0.04 0.5,-0.05 0.75,-0.05 v 0 c 2.39,0 4.48,1.74 4.85,4.17 v 0 c 0.41,2.68 -1.43,5.19 -4.11,5.6 v 0 c -2.68,0.41 -5.19,-1.43 -5.6,-4.11 v 0 c -0.41,-2.68 1.43,-5.19 4.11,-5.6 v 0 z"
       id="path19"
       style="fill:#ffffff" />
    <path
       class="cls-1"
       d="m 144.08,51.53 c 0.82,-1.82 2.61,-2.9 4.49,-2.9 v 0 c 0.67,0 1.36,0.14 2.01,0.44 v 0 c 0,0 0,0 0,0 v 0 c 2.48,1.11 3.58,4.01 2.47,6.49 v 0 c -1.12,2.47 -4.02,3.58 -6.5,2.47 v 0 c -2.48,-1.11 -3.58,-4.02 -2.47,-6.49 v 0 z"
       id="path20"
       style="fill:#ffffff" />
    <path
       class="cls-1"
       d="m 99.33,49.56 c 0.68,-0.32 1.39,-0.47 2.09,-0.47 v 0 c 1.84,0 3.6,1.04 4.44,2.82 v 0 c 1.16,2.45 0.11,5.38 -2.34,6.54 v 0 c -2.45,1.16 -5.38,0.11 -6.54,-2.34 v 0 c -1.16,-2.46 -0.11,-5.38 2.35,-6.54 v 0 z"
       id="path21"
       style="fill:#ffffff" />
    <path
       class="cls-1"
       d="M 84.7,59.25 C 85.64,58.42 86.8,58 87.97,58 v 0 c 1.35,0 2.7,0.56 3.67,1.64 v 0 c 1.8,2.02 1.63,5.13 -0.4,6.93 v 0 c -2.02,1.81 -5.13,1.63 -6.93,-0.39 v 0 C 82.5,64.16 82.68,61.05 84.7,59.24 v 0 z"
       id="path22"
       style="fill:#ffffff" />
    <path
       class="cls-1"
       d="m 170.15,70.24 c 0.82,-0.53 1.75,-0.79 2.67,-0.79 v 0 c 1.61,0 3.18,0.79 4.13,2.24 v 0 c 1.47,2.28 0.83,5.32 -1.45,6.8 v 0 c -2.27,1.48 -5.32,0.82 -6.8,-1.45 v 0 c -1.47,-2.28 -0.82,-5.32 1.45,-6.79 v 0 z"
       id="path23"
       style="fill:#ffffff" />
    <path
       class="cls-1"
       d="m 178.2,84.32 c 0.46,-0.14 0.93,-0.2 1.4,-0.2 v 0 c 2.11,0 4.07,1.38 4.7,3.53 v 0 c 0.77,2.6 -0.72,5.33 -3.33,6.1 v 0 c -2.6,0.77 -5.33,-0.72 -6.1,-3.32 v 0 c -0.77,-2.6 0.72,-5.33 3.33,-6.1 v 0 z"
       id="path24"
       style="fill:#ffffff" />
    <path
       class="cls-1"
       d="m 66.36,88.78 c 0.6,-2.18 2.58,-3.62 4.74,-3.62 v 0 c 0.43,0 0.87,0.06 1.3,0.18 v 0 c 2.62,0.72 4.16,3.42 3.44,6.03 v 0 c -0.71,2.62 -3.42,4.16 -6.03,3.44 v 0 c -2.62,-0.72 -4.16,-3.42 -3.44,-6.03 v 0 z"
       id="path25"
       style="fill:#ffffff" />
    <path
       class="cls-1"
       d="m 127.18,61.35 c 0.21,-1.57 1.56,-2.71 3.1,-2.71 v 0 c 0.13,0 0.27,0 0.42,0.03 v 0 c 1.71,0.23 2.9,1.8 2.69,3.51 v 0 c -0.23,1.71 -1.81,2.91 -3.52,2.68 v 0 c -1.71,-0.23 -2.91,-1.8 -2.69,-3.51 z"
       id="path26"
       style="fill:#ffffff" />
    <path
       class="cls-1"
       d="m 119.54,58.77 c 0.16,-0.02 0.32,-0.04 0.48,-0.04 v 0 c 1.51,0 2.84,1.11 3.08,2.65 v 0 c 0.26,1.7 -0.91,3.3 -2.61,3.56 v 0 c -1.71,0.26 -3.3,-0.91 -3.56,-2.62 v 0 c -0.26,-1.7 0.91,-3.3 2.61,-3.56 v 0 z"
       id="path27"
       style="fill:#ffffff" />
    <path
       class="cls-1"
       d="m 137.31,63.29 c 0.52,-1.16 1.65,-1.84 2.85,-1.84 v 0 c 0.43,0 0.87,0.09 1.29,0.28 v 0 c 1.57,0.7 2.27,2.55 1.57,4.13 v 0 c -0.71,1.57 -2.56,2.28 -4.13,1.57 v 0 c -1.57,-0.71 -2.27,-2.55 -1.57,-4.13 v 0 z"
       id="path28"
       style="fill:#ffffff" />
    <path
       class="cls-1"
       d="m 99.54,68.21 c 0.59,-0.53 1.34,-0.8 2.08,-0.8 v 0 c 0.86,0 1.72,0.35 2.33,1.05 v 0 c 1.15,1.29 1.04,3.26 -0.25,4.41 v 0 c -1.28,1.15 -3.26,1.03 -4.41,-0.25 v 0 c -1.14,-1.29 -1.04,-3.26 0.25,-4.41 z"
       id="path29"
       style="fill:#ffffff" />
    <path
       class="cls-1"
       d="m 153.9,75.19 c 0.52,-0.34 1.11,-0.5 1.69,-0.5 v 0 c 1.03,0 2.03,0.5 2.62,1.42 v 0 c 0.94,1.45 0.53,3.39 -0.92,4.32 v 0 c -1.45,0.94 -3.38,0.53 -4.32,-0.92 v 0 c -0.94,-1.45 -0.52,-3.38 0.92,-4.32 v 0 z"
       id="path30"
       style="fill:#ffffff" />
    <path
       class="cls-1"
       d="m 92.36,76.74 c 0.59,-0.95 1.61,-1.47 2.66,-1.48 v 0 c 0.56,0 1.13,0.16 1.65,0.47 v 0 c 1.47,0.92 1.91,2.84 1,4.3 v 0 c -0.91,1.47 -2.84,1.92 -4.3,1.01 v 0 c -1.46,-0.92 -1.91,-2.84 -1,-4.31 v 0 z"
       id="path31"
       style="fill:#ffffff" />
    <path
       class="cls-1"
       d="m 159.01,84.15 c 0.3,-0.09 0.59,-0.13 0.89,-0.13 v 0 c 1.35,0 2.6,0.88 2.99,2.24 v 0 c 0.49,1.66 -0.46,3.39 -2.1,3.88 v 0 c -1.66,0.49 -3.39,-0.46 -3.88,-2.11 v 0 c -0.49,-1.66 0.46,-3.39 2.11,-3.88 v 0 z"
       id="path32"
       style="fill:#ffffff" />
    <path
       class="cls-1"
       d="m 87.89,86.98 c 0.38,-1.39 1.64,-2.3 3.01,-2.3 v 0 c 0.27,0 0.55,0.04 0.82,0.11 v 0 c 1.67,0.46 2.65,2.18 2.19,3.84 v 0 c -0.46,1.66 -2.18,2.64 -3.84,2.19 v 0 C 88.4,90.36 87.43,88.64 87.88,86.98 v 0 z"
       id="path33"
       style="fill:#ffffff" />
    <path
       class="cls-1"
       d="m 204.54,84.51 c 0.69,-0.21 1.39,-0.31 2.08,-0.31 v 0 c 3.18,0 6.12,2.08 7.06,5.29 v 0 c 1.16,3.9 -1.08,8 -4.98,9.15 v 0 c -3.91,1.14 -8,-1.08 -9.16,-4.98 v 0 c -1.14,-3.9 1.08,-8 4.99,-9.15 v 0 z"
       id="path34"
       style="fill:#ffffff" />
    <rect
       class="cls-1"
       x="232.02"
       y="120.84"
       width="17.18"
       height="68.730003"
       id="rect34"
       style="fill:#ffffff" />
    <path
       class="cls-1"
       d="m 24.1,155.2 c 0,-4.74 3.85,-8.59 8.6,-8.59 h 51.98 c 1.21,0 2.23,-0.47 3.04,-1.26 v 0 c 0.79,-0.8 1.25,-1.83 1.25,-3.04 v 0 c 0,-1.22 -0.47,-2.23 -1.25,-3.04 v 0 c -0.81,-0.79 -1.83,-1.25 -3.04,-1.26 H 34.41 c -4.75,0 -8.98,1.91 -12.11,5.02 v 0 c -3.12,3.14 -5.02,7.39 -5.03,12.16 v 0 c 0.01,4.78 1.91,9.02 5.03,12.16 v 0 c 3.12,3.13 7.35,5.02 12.11,5.02 h 71.79 v 17.19 H 34.39 c -9.45,0 -18.08,-3.87 -24.26,-10.08 v 0 C 3.94,173.3 0.08,164.66 0.09,155.2 v 0 c 0,-9.46 3.85,-18.1 10.04,-24.29 v 0 c 6.18,-6.21 14.82,-10.07 24.27,-10.07 h 50.27 c 5.9,0 11.33,2.41 15.19,6.28 v 0 c 3.88,3.86 6.3,9.29 6.29,15.19 v 0 c 0,5.91 -2.42,11.33 -6.29,15.2 v 0 c -3.85,3.86 -9.27,6.28 -15.17,6.28 h -52 c -4.75,0 -8.6,-3.84 -8.6,-8.59 z"
       id="path35"
       style="fill:#ffffff" />
    <path
       class="cls-1"
       d="m 139.47,155.2 c 0,4.75 3.84,8.59 8.59,8.59 h 51.97 c 1.21,0 2.24,0.47 3.04,1.26 v 0 c 0.79,0.81 1.25,1.83 1.25,3.04 v 0 c 0,1.21 -0.47,2.23 -1.25,3.03 v 0 c -0.8,0.79 -1.83,1.25 -3.04,1.26 h -50.26 c -4.76,0 -8.98,-1.89 -12.11,-5.02 v 0 c -3.11,-3.14 -5.02,-7.37 -5.02,-12.16 v 0 c 0,-4.77 1.91,-9.02 5.02,-12.16 v 0 c 3.13,-3.11 7.35,-5.02 12.11,-5.02 h 71.79 v -17.18 h -71.8 c -9.45,0 -18.08,3.86 -24.25,10.07 v 0 c -6.2,6.19 -10.05,14.83 -10.05,24.29 v 0 c 0,9.46 3.84,18.1 10.05,24.29 v 0 c 6.18,6.21 14.81,10.08 24.27,10.08 h 50.26 c 5.91,0 11.34,-2.42 15.2,-6.3 v 0 c 3.86,-3.86 6.29,-9.28 6.28,-15.19 v 0 c 0,-5.9 -2.42,-11.32 -6.28,-15.19 v 0 c -3.86,-3.87 -9.28,-6.29 -15.18,-6.29 h -51.99 c -4.75,0 -8.59,3.85 -8.59,8.59 v 0 z"
       id="path36"
       style="fill:#ffffff" />
    <path
       class="cls-1"
       d="m 250,93.22 c 0,5.74 -4.66,10.4 -10.41,10.4 -5.75,0 -10.39,-4.66 -10.39,-10.4 0,-5.74 4.66,-10.4 10.39,-10.4 5.73,0 10.41,4.66 10.41,10.4 z"
       id="path37"
       style="fill:#ffffff" />
    <path
       class="cls-1"
       d="m 184.69,19.75 c 0,5.74 -4.65,10.4 -10.4,10.4 -5.75,0 -10.39,-4.66 -10.39,-10.4 0,-5.74 4.65,-10.4 10.39,-10.4 5.74,0 10.4,4.66 10.4,10.4 z"
       id="path38"
       style="fill:#ffffff" />
    <path
       class="cls-1"
       d="m 167.09,62.2 c 0,2.71 -2.2,4.91 -4.91,4.91 -2.71,0 -4.9,-2.2 -4.9,-4.91 0,-2.71 2.19,-4.91 4.9,-4.91 2.71,0 4.91,2.2 4.91,4.91 z"
       id="path39"
       style="fill:#ffffff" />
    <path
       class="cls-1"
       d="m 82.47,75.28 c 0,2.71 -2.2,4.91 -4.91,4.91 -2.71,0 -4.9,-2.2 -4.9,-4.91 0,-2.71 2.19,-4.9 4.9,-4.9 2.71,0 4.91,2.19 4.91,4.9 z"
       id="path40"
       style="fill:#ffffff" />
    <circle
       class="cls-1"
       cx="148.83"
       cy="70.080002"
       r="3.1300001"
       id="circle40"
       style="fill:#ffffff" />
    <path
       class="cls-1"
       d="m 113.31,64.86 c 0,1.73 -1.4,3.13 -3.13,3.13 -1.73,0 -3.12,-1.4 -3.12,-3.13 0,-1.73 1.4,-3.12 3.12,-3.12 1.72,0 3.13,1.4 3.13,3.12 z"
       id="path41"
       style="fill:#ffffff" />
  </g>
</svg>
