<?xml version="1.0" encoding="UTF-8" standalone="no"?><svg xmlns:svg="http://www.w3.org/2000/svg" xmlns="http://www.w3.org/2000/svg" xmlns:xlink="http://www.w3.org/1999/xlink" version="1.0" width="64px" height="64px" viewBox="0 0 128 128" xml:space="preserve"><g><ellipse cx="64" cy="18.75" rx="6.25" ry="18.75" fill="#ffffff"/><ellipse cx="64" cy="18.75" rx="6.25" ry="18.75" fill="#ffffff" transform="rotate(30 64 64)"/><ellipse cx="64" cy="18.75" rx="6.25" ry="18.75" fill="#e5e5e5" transform="rotate(60 64 64)"/><ellipse cx="64" cy="18.75" rx="6.25" ry="18.75" fill="#cccccc" transform="rotate(90 64 64)"/><ellipse cx="64" cy="18.75" rx="6.25" ry="18.75" fill="#b2b2b2" transform="rotate(120 64 64)"/><ellipse cx="64" cy="18.75" rx="6.25" ry="18.75" fill="#999999" transform="rotate(150 64 64)"/><ellipse cx="64" cy="18.75" rx="6.25" ry="18.75" fill="#7f7f7f" transform="rotate(180 64 64)"/><ellipse cx="64" cy="18.75" rx="6.25" ry="18.75" fill="#666666" transform="rotate(210 64 64)"/><ellipse cx="64" cy="18.75" rx="6.25" ry="18.75" fill="#4c4c4c" transform="rotate(240 64 64)"/><ellipse cx="64" cy="18.75" rx="6.25" ry="18.75" fill="#333333" transform="rotate(270 64 64)"/><ellipse cx="64" cy="18.75" rx="6.25" ry="18.75" fill="#191919" transform="rotate(300 64 64)"/><ellipse cx="64" cy="18.75" rx="6.25" ry="18.75" fill="#000000" transform="rotate(330 64 64)"/><animateTransform attributeName="transform" type="rotate" values="0 64 64;30 64 64;60 64 64;90 64 64;120 64 64;150 64 64;180 64 64;210 64 64;240 64 64;270 64 64;300 64 64;330 64 64" calcMode="discrete" dur="1080ms" repeatCount="indefinite"></animateTransform></g></svg>