<?xml version="1.0" encoding="utf-8"?>
<!-- Generator: Adobe Illustrator 27.0.0, SVG Export Plug-In . SVG Version: 6.00 Build 0)  -->
<svg version="1.1" id="Layer_1" xmlns="http://www.w3.org/2000/svg" xmlns:xlink="http://www.w3.org/1999/xlink" x="0px" y="0px"
	 viewBox="0 0 52 52" style="enable-background:new 0 0 52 52;" xml:space="preserve">
<style type="text/css">
	.st0{fill:#0FA1FF;}
	.st1{fill:#005993;}
</style>
<g>
	<g>
		<path class="st0" d="M5.4,47.1H4.6c-0.1,0-0.2-0.1-0.2-0.2v-7.8c0-0.1,0.1-0.2,0.2-0.2h0.8c0.1,0,0.2,0.1,0.2,0.2v0.5h0.1
			c0.2-0.4,0.6-0.7,1.3-0.7h0.6c0.6,0,1.1,0.2,1.4,0.5c0.3,0.3,0.5,0.8,0.5,1.5v2.5c0,0.6-0.2,1.1-0.5,1.5c-0.3,0.3-0.8,0.5-1.4,0.5
			H6.9c-0.7,0-1.1-0.2-1.3-0.7H5.6v2.2C5.6,47.1,5.5,47.1,5.4,47.1z M6.6,44.3h0.7c0.6,0,0.9-0.3,0.9-0.9v-2.4
			c0-0.6-0.3-0.9-0.9-0.9H6.6c-0.7,0-1,0.4-1,1.1v2.2C5.6,43.9,5.9,44.3,6.6,44.3z M11.9,45.3h-0.8c-0.1,0-0.2-0.1-0.2-0.2v-6
			c0-0.1,0.1-0.2,0.2-0.2h0.8c0.1,0,0.2,0.1,0.2,0.2v0.5h0.1c0.1-0.2,0.2-0.4,0.5-0.5c0.2-0.1,0.5-0.2,0.8-0.2H14
			c0.1,0,0.2,0.1,0.2,0.2v0.7c0,0.2-0.1,0.2-0.2,0.2h-0.8c-0.7,0-1.1,0.4-1.1,1.2v4C12.1,45.3,12.1,45.3,11.9,45.3z M17.5,45.3H17
			c-0.6,0-1.1-0.2-1.5-0.5C15.2,44.5,15,44,15,43.4v-2.5c0-0.6,0.2-1.1,0.5-1.4c0.3-0.3,0.8-0.5,1.5-0.5h2.8c0.2,0,0.2,0.1,0.2,0.2
			v6c0,0.1-0.1,0.2-0.2,0.2h-0.8c-0.1,0-0.2-0.1-0.2-0.2v-0.5h-0.1C18.6,45.1,18.2,45.3,17.5,45.3z M18.8,43.2v-3.1
			c0-0.1,0-0.1-0.1-0.1h-1.5c-0.6,0-0.9,0.3-0.9,0.9v2.4c0,0.6,0.3,0.9,0.9,0.9h0.6C18.5,44.3,18.8,43.9,18.8,43.2z M25.6,44.5v0.7
			c0,0.1-0.1,0.2-0.2,0.2h-1.9c-0.6,0-1.1-0.2-1.5-0.5c-0.3-0.3-0.5-0.8-0.5-1.4v-2.5c0-0.6,0.2-1.1,0.5-1.4
			c0.3-0.3,0.8-0.5,1.5-0.5h1.9c0.2,0,0.2,0.1,0.2,0.2v0.7c0,0.1-0.1,0.2-0.2,0.2h-1.7c-0.6,0-0.9,0.3-0.9,0.9v2.4
			c0,0.6,0.3,0.9,0.9,0.9h1.7C25.5,44.3,25.6,44.3,25.6,44.5z M31.4,45.3h-2.7c-0.6,0-1.1-0.2-1.5-0.5c-0.3-0.3-0.5-0.8-0.5-1.4
			v-2.5c0-0.6,0.2-1.1,0.5-1.4c0.3-0.3,0.8-0.5,1.5-0.5h1c0.6,0,1.1,0.2,1.5,0.5c0.3,0.3,0.5,0.8,0.5,1.4v1.6c0,0.2-0.1,0.2-0.2,0.2
			h-3.4c-0.1,0-0.1,0-0.1,0.1v0.5c0,0.6,0.3,0.9,0.9,0.9h2.6c0.2,0,0.2,0.1,0.2,0.2v0.6C31.6,45.3,31.6,45.3,31.4,45.3z M28.1,41.8
			h2.3c0.1,0,0.1,0,0.1-0.1v-0.8c0-0.3-0.1-0.6-0.2-0.7c-0.1-0.2-0.4-0.2-0.7-0.2h-0.7c-0.3,0-0.6,0.1-0.7,0.2
			c-0.1,0.1-0.2,0.4-0.2,0.7v0.8C27.9,41.8,28,41.8,28.1,41.8z"/>
		<path class="st1" d="M34.2,45.3h-0.8c-0.1,0-0.2-0.1-0.2-0.2v-8.5c0-0.1,0.1-0.2,0.2-0.2h0.8c0.1,0,0.2,0.1,0.2,0.2v8.5
			C34.4,45.3,34.3,45.3,34.2,45.3z M38.4,45.3h-0.5c-0.6,0-1.1-0.2-1.5-0.5c-0.3-0.3-0.5-0.8-0.5-1.4v-2.5c0-0.6,0.2-1.1,0.5-1.4
			c0.3-0.3,0.8-0.5,1.5-0.5h2.8c0.2,0,0.2,0.1,0.2,0.2v6c0,0.1-0.1,0.2-0.2,0.2h-0.8c-0.1,0-0.2-0.1-0.2-0.2v-0.5h-0.1
			C39.5,45.1,39,45.3,38.4,45.3z M39.7,43.2v-3.1c0-0.1,0-0.1-0.1-0.1h-1.5c-0.6,0-0.9,0.3-0.9,0.9v2.4c0,0.6,0.3,0.9,0.9,0.9h0.6
			C39.4,44.3,39.7,43.9,39.7,43.2z M43.9,44.3h1.6c0.6,0,0.9-0.3,0.9-0.9v-2.5c0-0.6-0.3-0.9-0.9-0.9h-0.7c-0.7,0-1,0.4-1,1.1v3.2
			C43.8,44.2,43.8,44.3,43.9,44.3z M42.6,45.1v-8.5c0-0.1,0.1-0.2,0.2-0.2h0.8c0.1,0,0.2,0.1,0.2,0.2v2.9h0.1
			c0.2-0.5,0.6-0.7,1.3-0.7h0.6c0.6,0,1.1,0.2,1.5,0.5c0.3,0.3,0.5,0.8,0.5,1.4v2.6c0,0.6-0.2,1.1-0.5,1.4c-0.3,0.3-0.8,0.5-1.5,0.5
			h-2.9C42.6,45.3,42.6,45.3,42.6,45.1z"/>
	</g>
	<g>
		<path class="st0" d="M22.1,18.5c1.5,0,2.6-1.2,2.6-2.7c0-1.5-1.2-2.7-2.6-2.7c-1.5,0-2.6,1.2-2.6,2.7
			C19.5,17.3,20.6,18.5,22.1,18.5z"/>
		<path class="st0" d="M22.1,26.8c1.5,0,2.6-1.2,2.6-2.7s-1.2-2.7-2.6-2.7c-1.5,0-2.6,1.2-2.6,2.7S20.6,26.8,22.1,26.8z"/>
		<path class="st0" d="M22.1,34.6c1.5,0,2.6-1.2,2.6-2.7c0-1.5-1.2-2.7-2.6-2.7c-1.5,0-2.6,1.2-2.6,2.7
			C19.5,33.4,20.6,34.6,22.1,34.6z"/>
		<path class="st0" d="M29.9,18.5c1.5,0,2.6-1.2,2.6-2.7c0-1.5-1.2-2.7-2.6-2.7c-1.5,0-2.6,1.2-2.6,2.7
			C27.3,17.3,28.5,18.5,29.9,18.5z"/>
		<path class="st0" d="M29.9,26.8c1.5,0,2.6-1.2,2.6-2.7s-1.2-2.7-2.6-2.7c-1.5,0-2.6,1.2-2.6,2.7S28.5,26.8,29.9,26.8z"/>
		<path class="st0" d="M29.9,10.2c1.5,0,2.6-1.2,2.6-2.7c0-1.5-1.2-2.7-2.6-2.7c-1.5,0-2.6,1.2-2.6,2.7C27.3,9,28.5,10.2,29.9,10.2z
			"/>
		<path class="st0" d="M22.1,18.5c1.5,0,2.6-1.2,2.6-2.7c0-1.5-1.2-2.7-2.6-2.7c-1.5,0-2.6,1.2-2.6,2.7
			C19.5,17.3,20.6,18.5,22.1,18.5z"/>
		<path class="st0" d="M22.1,26.8c1.5,0,2.6-1.2,2.6-2.7s-1.2-2.7-2.6-2.7c-1.5,0-2.6,1.2-2.6,2.7S20.6,26.8,22.1,26.8z"/>
		<path class="st0" d="M22.1,34.6c1.5,0,2.6-1.2,2.6-2.7c0-1.5-1.2-2.7-2.6-2.7c-1.5,0-2.6,1.2-2.6,2.7
			C19.5,33.4,20.6,34.6,22.1,34.6z"/>
		<path class="st1" d="M29.9,18.5c1.5,0,2.6-1.2,2.6-2.7c0-1.5-1.2-2.7-2.6-2.7c-1.5,0-2.6,1.2-2.6,2.7
			C27.3,17.3,28.5,18.5,29.9,18.5z"/>
		<path class="st1" d="M29.9,26.8c1.5,0,2.6-1.2,2.6-2.7s-1.2-2.7-2.6-2.7c-1.5,0-2.6,1.2-2.6,2.7S28.5,26.8,29.9,26.8z"/>
		<path class="st0" d="M29.9,10.2c1.5,0,2.6-1.2,2.6-2.7c0-1.5-1.2-2.7-2.6-2.7c-1.5,0-2.6,1.2-2.6,2.7C27.3,9,28.5,10.2,29.9,10.2z
			"/>
	</g>
</g>
</svg>
